<?xml version="1.0" encoding="UTF-8" standalone="no"?><svg xmlns="http://www.w3.org/2000/svg" xmlns:xlink="http://www.w3.org/1999/xlink" contentScriptType="application/ecmascript" contentStyleType="text/css" height="455.7px" preserveAspectRatio="none" style="width:659px;height:455px;" version="1.1" viewBox="0 0 659 455" width="659.4px" zoomAndPan="magnify"><defs><filter height="300%" id="f1wum8zhb3pqv5" width="300%" x="-1" y="-1"><feGaussianBlur result="blurOut" stdDeviation="1.4"/><feColorMatrix in="blurOut" result="blurOut2" type="matrix" values="0 0 0 0 0 0 0 0 0 0 0 0 0 0 0 0 0 0 .4 0"/><feOffset dx="2.8" dy="2.8" in="blurOut2" result="blurOut3"/><feBlend in="SourceGraphic" in2="blurOut3" mode="normal"/></filter></defs><g><text fill="#000000" font-family="sans-serif" font-size="12.6" lengthAdjust="spacingAndGlyphs" text-decoration="underline" textLength="132.3" x="259.35" y="13.0799">ACTION Class Diagram</text><text fill="#000000" font-family="sans-serif" font-size="12.6" lengthAdjust="spacingAndGlyphs" textLength="0" x="327.25" y="28.9283"/><!--MD5=[3c7528de3673293a88f77259bf5ce1ae]
cluster action--><polygon fill="#FFFFFF" filter="url(#f1wum8zhb3pqv5)" points="15.4,48.4969,49.7,48.4969,54.6,65.0234,149.8,65.0234,149.8,156.9969,15.4,156.9969,15.4,48.4969" style="stroke: #000000; stroke-width: 1.0499999999999998;"/><line style="stroke: #000000; stroke-width: 1.0499999999999998;" x1="15.4" x2="54.6" y1="65.0234" y2="65.0234"/><text fill="#000000" font-family="sans-serif" font-size="9.8" font-weight="bold" lengthAdjust="spacingAndGlyphs" textLength="30.1" x="18.2" y="60.0701">action</text><!--MD5=[a4d400d05d823324a5f6d1aa286d0949]
cluster model.action--><polygon fill="#FFFFFF" filter="url(#f1wum8zhb3pqv5)" points="166.6,57.9469,233.8,57.9469,238.7,74.4734,627.2,74.4734,627.2,394.9969,166.6,394.9969,166.6,57.9469" style="stroke: #000000; stroke-width: 1.0499999999999998;"/><line style="stroke: #000000; stroke-width: 1.0499999999999998;" x1="166.6" x2="238.7" y1="74.4734" y2="74.4734"/><text fill="#000000" font-family="sans-serif" font-size="9.8" font-weight="bold" lengthAdjust="spacingAndGlyphs" textLength="63" x="169.4" y="69.5201">model.action</text><!--MD5=[2a4d5c770de3c10a2e82b12b7a9e3645]
class action.ActionOutcome--><rect fill="#FEFECE" filter="url(#f1wum8zhb3pqv5)" height="72.3406" id="action.ActionOutcome" style="stroke: #A80036; stroke-width: 1.0499999999999998;" width="112" x="26.6" y="73.6969"/><ellipse cx="51.275" cy="84.8969" fill="#EB937F" rx="7.7" ry="7.7" style="stroke: #A80036; stroke-width: 0.7;"/><path d="M50.225,85.5969 L50.225,86.9969 L53.025,86.9969 L53.025,86.2969 L53.025,85.9578 L53.4625,85.5969 L53.725,85.5969 L53.9875,85.5969 L54.425,85.9578 L54.425,86.2969 L54.425,88.3969 L48.825,88.3969 L48.4859,88.3969 L48.125,87.9594 L48.125,87.6969 L48.125,87.4344 L48.4859,86.9969 L48.825,86.9969 L48.825,86.9969 L48.825,82.7969 L48.825,82.7969 L48.4859,82.7969 L48.125,82.3594 L48.125,82.0969 L48.125,81.8344 L48.4859,81.3969 L48.825,81.3969 L54.425,81.3969 L54.425,83.4969 L54.425,83.8359 L53.9875,84.1969 L53.725,84.1969 L53.4625,84.1969 L53.025,83.8359 L53.025,83.4969 L53.025,82.7969 L50.225,82.7969 L50.225,84.1969 L50.925,84.1969 L50.925,83.8578 L50.925,83.8578 L51.3625,83.4969 L51.625,83.4969 L51.8875,83.4969 L52.325,83.8578 L52.325,84.1969 L52.325,85.5969 L52.325,85.9359 L51.8875,86.2969 L51.8875,86.2969 L51.625,86.2969 L51.3625,86.2969 L50.925,85.9359 L50.925,85.9359 L50.925,85.5969 L50.225,85.5969 Z "/><text fill="#000000" font-family="sans-serif" font-size="8.4" lengthAdjust="spacingAndGlyphs" textLength="58.1" x="64.225" y="88.334">ActionOutcome</text><line style="stroke: #A80036; stroke-width: 1.0499999999999998;" x1="27.3" x2="137.9" y1="96.0969" y2="96.0969"/><text fill="#000000" font-family="sans-serif" font-size="7.7" lengthAdjust="spacingAndGlyphs" textLength="19.6" x="30.8" y="106.8901">DONE</text><text fill="#000000" font-family="sans-serif" font-size="7.7" lengthAdjust="spacingAndGlyphs" textLength="103.6" x="30.8" y="116.5753">DONE_CAN_BE_DONE_AGAIN</text><text fill="#000000" font-family="sans-serif" font-size="7.7" lengthAdjust="spacingAndGlyphs" textLength="38.5" x="30.8" y="126.2604">NOT_DONE</text><text fill="#000000" font-family="sans-serif" font-size="7.7" lengthAdjust="spacingAndGlyphs" textLength="55.3" x="30.8" y="135.9456">WINNING_MOVE</text><line style="stroke: #A80036; stroke-width: 1.0499999999999998;" x1="27.3" x2="137.9" y1="140.4375" y2="140.4375"/><!--MD5=[739c09710ab339f9d4cbc1330f30464d]
class model.action.Action--><rect fill="#FEFECE" filter="url(#f1wum8zhb3pqv5)" height="52.9703" id="model.action.Action" style="stroke: #A80036; stroke-width: 1.0499999999999998;" width="53.9" x="357.35" y="83.1469"/><ellipse cx="371.315" cy="94.3469" fill="#B4A7E5" rx="7.7" ry="7.7" style="stroke: #A80036; stroke-width: 0.7;"/><path d="M372.015,92.2469 L372.015,96.4469 L373.415,96.4469 L373.7541,96.4469 L374.115,96.8844 L374.115,97.1469 L374.115,97.4094 L373.7541,97.8469 L373.415,97.8469 L369.215,97.8469 L368.8759,97.8469 L368.515,97.4094 L368.515,97.1469 L368.515,96.8844 L368.8759,96.4469 L369.215,96.4469 L370.615,96.4469 L370.615,92.2469 L369.215,92.2469 L368.8759,92.2469 L368.515,91.8094 L368.515,91.5469 L368.515,91.2844 L368.8759,90.8469 L369.215,90.8469 L373.415,90.8469 L373.7541,90.8469 L374.115,91.2844 L374.115,91.5469 L374.115,91.8094 L373.7541,92.2469 L373.415,92.2469 L372.015,92.2469 Z "/><text fill="#000000" font-family="sans-serif" font-size="8.4" font-style="italic" lengthAdjust="spacingAndGlyphs" textLength="23.8" x="381.885" y="97.784">Action</text><line style="stroke: #A80036; stroke-width: 1.0499999999999998;" x1="358.05" x2="410.55" y1="105.5469" y2="105.5469"/><line style="stroke: #A80036; stroke-width: 1.0499999999999998;" x1="358.05" x2="410.55" y1="111.1469" y2="111.1469"/><ellipse cx="365.05" cy="118.8469" fill="#84BE84" rx="2.1" ry="2.1" style="stroke: #038048; stroke-width: 0.7;"/><text fill="#000000" font-family="sans-serif" font-size="7.7" font-style="italic" lengthAdjust="spacingAndGlyphs" textLength="35.7" x="371.35" y="121.9401">doAction()</text><ellipse cx="365.05" cy="128.532" fill="#84BE84" rx="2.1" ry="2.1" style="stroke: #038048; stroke-width: 0.7;"/><text fill="#000000" font-family="sans-serif" font-size="7.7" font-style="italic" lengthAdjust="spacingAndGlyphs" textLength="29.4" x="371.35" y="131.6253">isValid()</text><!--MD5=[919a5973868bb33fe241c3054a337cd8]
class model.action.ApolloSwapAction--><rect fill="#FEFECE" filter="url(#f1wum8zhb3pqv5)" height="62.6555" id="model.action.ApolloSwapAction" style="stroke: #A80036; stroke-width: 1.0499999999999998;" width="91" x="401.1" y="316.2469"/><ellipse cx="411.6" cy="327.4469" fill="#ADD1B2" rx="7.7" ry="7.7" style="stroke: #A80036; stroke-width: 0.7;"/><path d="M413,324.9969 Q413.1422,324.6469 413.3063,324.4719 Q413.4703,324.2969 413.6563,324.2969 Q413.9844,324.2969 414.1922,324.4938 Q414.4,324.6906 414.4,325.15 L414.4,326.2438 Q414.4,326.7031 414.2031,326.9 Q414.0062,327.0969 413.7,327.0969 Q413.4266,327.0969 413.2516,326.9766 Q413.0766,326.8563 413,326.5391 Q412.9672,326.3203 412.8469,326.2 Q412.6281,325.9703 412.2344,325.8391 Q411.8406,325.6969 411.4469,325.6969 Q410.9547,325.6969 410.5391,325.8937 Q410.1344,326.0906 409.8172,326.5281 Q409.5,326.9656 409.5,327.5672 L409.5,328.2125 Q409.5,328.9344 410.0906,329.4156 Q410.6813,329.8969 411.7313,329.8969 Q412.3547,329.8969 412.7922,329.7547 Q413.0438,329.6781 413.3281,329.4266 Q413.5141,329.2844 413.6125,329.2406 Q413.7109,329.1969 413.8312,329.1969 Q414.0609,329.1969 414.225,329.3828 Q414.4,329.5578 414.4,329.8094 Q414.4,330.05 414.1594,330.3344 Q413.8094,330.75 413.2516,330.9797 Q412.5187,331.2969 411.6219,331.2969 Q410.5719,331.2969 409.7297,330.8812 Q409.0516,330.5531 408.5703,329.8422 Q408.1,329.1312 408.1,328.2891 L408.1,327.5234 Q408.1,326.6484 408.5156,325.8828 Q408.9422,325.1172 409.675,324.7125 Q410.4188,324.2969 411.25,324.2969 Q411.7531,324.2969 412.1906,324.4719 Q412.6281,324.6469 413,324.9969 Z "/><text fill="#000000" font-family="sans-serif" font-size="8.4" lengthAdjust="spacingAndGlyphs" textLength="68.6" x="421.4" y="330.884">ApolloSwapAction</text><line style="stroke: #A80036; stroke-width: 1.0499999999999998;" x1="401.8" x2="491.4" y1="338.6469" y2="338.6469"/><line style="stroke: #A80036; stroke-width: 1.0499999999999998;" x1="401.8" x2="491.4" y1="344.2469" y2="344.2469"/><ellipse cx="408.8" cy="351.9469" fill="#84BE84" rx="2.1" ry="2.1" style="stroke: #038048; stroke-width: 0.7;"/><text fill="#000000" font-family="sans-serif" font-size="7.7" lengthAdjust="spacingAndGlyphs" textLength="68.6" x="415.1" y="355.0401">ApolloSwapAction()</text><ellipse cx="408.8" cy="361.632" fill="#84BE84" rx="2.1" ry="2.1" style="stroke: #038048; stroke-width: 0.7;"/><text fill="#000000" font-family="sans-serif" font-size="7.7" lengthAdjust="spacingAndGlyphs" textLength="35.7" x="415.1" y="364.7253">doAction()</text><ellipse cx="408.8" cy="371.3172" fill="#84BE84" rx="2.1" ry="2.1" style="stroke: #038048; stroke-width: 0.7;"/><text fill="#000000" font-family="sans-serif" font-size="7.7" lengthAdjust="spacingAndGlyphs" textLength="28" x="415.1" y="374.4104">isValid()</text><!--MD5=[fecab78318c9f13441a95b35283599e9]
class model.action.BuildAction--><rect fill="#FEFECE" filter="url(#f1wum8zhb3pqv5)" height="62.6555" id="model.action.BuildAction" style="stroke: #A80036; stroke-width: 1.0499999999999998;" width="65.1" x="178.85" y="197.2469"/><ellipse cx="189.35" cy="208.4469" fill="#ADD1B2" rx="7.7" ry="7.7" style="stroke: #A80036; stroke-width: 0.7;"/><path d="M190.75,205.9969 Q190.8922,205.6469 191.0562,205.4719 Q191.2203,205.2969 191.4063,205.2969 Q191.7344,205.2969 191.9422,205.4937 Q192.15,205.6906 192.15,206.15 L192.15,207.2437 Q192.15,207.7031 191.9531,207.9 Q191.7563,208.0969 191.45,208.0969 Q191.1766,208.0969 191.0016,207.9766 Q190.8266,207.8563 190.75,207.5391 Q190.7172,207.3203 190.5969,207.2 Q190.3781,206.9703 189.9844,206.8391 Q189.5906,206.6969 189.1969,206.6969 Q188.7047,206.6969 188.2891,206.8937 Q187.8844,207.0906 187.5672,207.5281 Q187.25,207.9656 187.25,208.5672 L187.25,209.2125 Q187.25,209.9344 187.8406,210.4156 Q188.4312,210.8969 189.4813,210.8969 Q190.1047,210.8969 190.5422,210.7547 Q190.7938,210.6781 191.0781,210.4266 Q191.2641,210.2844 191.3625,210.2406 Q191.4609,210.1969 191.5812,210.1969 Q191.8109,210.1969 191.975,210.3828 Q192.15,210.5578 192.15,210.8094 Q192.15,211.05 191.9094,211.3344 Q191.5594,211.75 191.0016,211.9797 Q190.2687,212.2969 189.3719,212.2969 Q188.3219,212.2969 187.4797,211.8813 Q186.8016,211.5531 186.3203,210.8422 Q185.85,210.1313 185.85,209.2891 L185.85,208.5234 Q185.85,207.6484 186.2656,206.8828 Q186.6922,206.1172 187.425,205.7125 Q188.1688,205.2969 189,205.2969 Q189.5031,205.2969 189.9406,205.4719 Q190.3781,205.6469 190.75,205.9969 Z "/><text fill="#000000" font-family="sans-serif" font-size="8.4" lengthAdjust="spacingAndGlyphs" textLength="42.7" x="199.15" y="211.884">BuildAction</text><line style="stroke: #A80036; stroke-width: 1.0499999999999998;" x1="179.55" x2="243.25" y1="219.6469" y2="219.6469"/><line style="stroke: #A80036; stroke-width: 1.0499999999999998;" x1="179.55" x2="243.25" y1="225.2469" y2="225.2469"/><ellipse cx="186.55" cy="232.9469" fill="#84BE84" rx="2.1" ry="2.1" style="stroke: #038048; stroke-width: 0.7;"/><text fill="#000000" font-family="sans-serif" font-size="7.7" lengthAdjust="spacingAndGlyphs" textLength="43.4" x="192.85" y="236.0401">BuildAction()</text><ellipse cx="186.55" cy="242.632" fill="#84BE84" rx="2.1" ry="2.1" style="stroke: #038048; stroke-width: 0.7;"/><text fill="#000000" font-family="sans-serif" font-size="7.7" lengthAdjust="spacingAndGlyphs" textLength="35.7" x="192.85" y="245.7253">doAction()</text><ellipse cx="186.55" cy="252.3172" fill="#84BE84" rx="2.1" ry="2.1" style="stroke: #038048; stroke-width: 0.7;"/><text fill="#000000" font-family="sans-serif" font-size="7.7" lengthAdjust="spacingAndGlyphs" textLength="28" x="192.85" y="255.4104">isValid()</text><!--MD5=[ddb5fa0f96a9e0dd2b563716abfad4ba]
class model.action.BuildDomeAction--><rect fill="#FEFECE" filter="url(#f1wum8zhb3pqv5)" height="52.9703" id="model.action.BuildDomeAction" style="stroke: #A80036; stroke-width: 1.0499999999999998;" width="88.9" x="178.15" y="321.1469"/><ellipse cx="188.65" cy="332.3469" fill="#ADD1B2" rx="7.7" ry="7.7" style="stroke: #A80036; stroke-width: 0.7;"/><path d="M190.05,329.8969 Q190.1922,329.5469 190.3563,329.3719 Q190.5203,329.1969 190.7062,329.1969 Q191.0344,329.1969 191.2422,329.3937 Q191.45,329.5906 191.45,330.05 L191.45,331.1437 Q191.45,331.6031 191.2531,331.8 Q191.0562,331.9969 190.75,331.9969 Q190.4766,331.9969 190.3016,331.8766 Q190.1266,331.7562 190.05,331.4391 Q190.0172,331.2203 189.8969,331.1 Q189.6781,330.8703 189.2844,330.7391 Q188.8906,330.5969 188.4969,330.5969 Q188.0047,330.5969 187.5891,330.7938 Q187.1844,330.9906 186.8672,331.4281 Q186.55,331.8656 186.55,332.4672 L186.55,333.1125 Q186.55,333.8344 187.1406,334.3156 Q187.7313,334.7969 188.7813,334.7969 Q189.4047,334.7969 189.8422,334.6547 Q190.0938,334.5781 190.3781,334.3266 Q190.5641,334.1844 190.6625,334.1406 Q190.7609,334.0969 190.8813,334.0969 Q191.1109,334.0969 191.275,334.2828 Q191.45,334.4578 191.45,334.7094 Q191.45,334.95 191.2094,335.2344 Q190.8594,335.65 190.3016,335.8797 Q189.5688,336.1969 188.6719,336.1969 Q187.6219,336.1969 186.7797,335.7813 Q186.1016,335.4531 185.6203,334.7422 Q185.15,334.0313 185.15,333.1891 L185.15,332.4234 Q185.15,331.5484 185.5656,330.7828 Q185.9922,330.0172 186.725,329.6125 Q187.4688,329.1969 188.3,329.1969 Q188.8031,329.1969 189.2406,329.3719 Q189.6781,329.5469 190.05,329.8969 Z "/><text fill="#000000" font-family="sans-serif" font-size="8.4" lengthAdjust="spacingAndGlyphs" textLength="66.5" x="198.45" y="335.784">BuildDomeAction</text><line style="stroke: #A80036; stroke-width: 1.0499999999999998;" x1="178.85" x2="266.35" y1="343.5469" y2="343.5469"/><line style="stroke: #A80036; stroke-width: 1.0499999999999998;" x1="178.85" x2="266.35" y1="349.1469" y2="349.1469"/><ellipse cx="185.85" cy="356.8469" fill="#84BE84" rx="2.1" ry="2.1" style="stroke: #038048; stroke-width: 0.7;"/><text fill="#000000" font-family="sans-serif" font-size="7.7" lengthAdjust="spacingAndGlyphs" textLength="62.3" x="192.15" y="359.9401">BuildDomeAction()</text><ellipse cx="185.85" cy="366.532" fill="#84BE84" rx="2.1" ry="2.1" style="stroke: #038048; stroke-width: 0.7;"/><text fill="#000000" font-family="sans-serif" font-size="7.7" lengthAdjust="spacingAndGlyphs" textLength="35.7" x="192.15" y="369.6253">doAction()</text><!--MD5=[816096e83b768a47574ec96c7e47481b]
class model.action.MinotaurPushAction--><rect fill="#FEFECE" filter="url(#f1wum8zhb3pqv5)" height="72.3406" id="model.action.MinotaurPushAction" style="stroke: #A80036; stroke-width: 1.0499999999999998;" width="98.7" x="516.95" y="311.6969"/><ellipse cx="527.45" cy="322.8969" fill="#ADD1B2" rx="7.7" ry="7.7" style="stroke: #A80036; stroke-width: 0.7;"/><path d="M528.85,320.4469 Q528.9922,320.0969 529.1563,319.9219 Q529.3203,319.7469 529.5063,319.7469 Q529.8344,319.7469 530.0422,319.9437 Q530.25,320.1406 530.25,320.6 L530.25,321.6937 Q530.25,322.1531 530.0531,322.35 Q529.8562,322.5469 529.55,322.5469 Q529.2766,322.5469 529.1016,322.4266 Q528.9266,322.3063 528.85,321.9891 Q528.8172,321.7703 528.6969,321.65 Q528.4781,321.4203 528.0844,321.2891 Q527.6906,321.1469 527.2969,321.1469 Q526.8047,321.1469 526.3891,321.3438 Q525.9844,321.5406 525.6672,321.9781 Q525.35,322.4156 525.35,323.0172 L525.35,323.6625 Q525.35,324.3844 525.9406,324.8656 Q526.5313,325.3469 527.5813,325.3469 Q528.2047,325.3469 528.6422,325.2047 Q528.8938,325.1281 529.1781,324.8766 Q529.3641,324.7344 529.4625,324.6906 Q529.5609,324.6469 529.6813,324.6469 Q529.9109,324.6469 530.075,324.8328 Q530.25,325.0078 530.25,325.2594 Q530.25,325.5 530.0094,325.7844 Q529.6594,326.2 529.1016,326.4297 Q528.3688,326.7469 527.4719,326.7469 Q526.4219,326.7469 525.5797,326.3312 Q524.9016,326.0031 524.4203,325.2922 Q523.95,324.5812 523.95,323.7391 L523.95,322.9734 Q523.95,322.0984 524.3656,321.3328 Q524.7922,320.5672 525.525,320.1625 Q526.2688,319.7469 527.1,319.7469 Q527.6031,319.7469 528.0406,319.9219 Q528.4781,320.0969 528.85,320.4469 Z "/><text fill="#000000" font-family="sans-serif" font-size="8.4" lengthAdjust="spacingAndGlyphs" textLength="76.3" x="537.25" y="326.334">MinotaurPushAction</text><line style="stroke: #A80036; stroke-width: 1.0499999999999998;" x1="517.65" x2="614.95" y1="334.0969" y2="334.0969"/><line style="stroke: #A80036; stroke-width: 1.0499999999999998;" x1="517.65" x2="614.95" y1="339.6969" y2="339.6969"/><ellipse cx="524.65" cy="347.3969" fill="#84BE84" rx="2.1" ry="2.1" style="stroke: #038048; stroke-width: 0.7;"/><text fill="#000000" font-family="sans-serif" font-size="7.7" lengthAdjust="spacingAndGlyphs" textLength="72.8" x="530.95" y="350.4901">MinotaurPushAction()</text><ellipse cx="524.65" cy="357.082" fill="#84BE84" rx="2.1" ry="2.1" style="stroke: #038048; stroke-width: 0.7;"/><text fill="#000000" font-family="sans-serif" font-size="7.7" lengthAdjust="spacingAndGlyphs" textLength="35.7" x="530.95" y="360.1753">doAction()</text><ellipse cx="524.65" cy="366.7672" fill="#84BE84" rx="2.1" ry="2.1" style="stroke: #038048; stroke-width: 0.7;"/><text fill="#000000" font-family="sans-serif" font-size="7.7" lengthAdjust="spacingAndGlyphs" textLength="63.7" x="530.95" y="369.8604">getBackwardInfo()</text><ellipse cx="524.65" cy="376.4523" fill="#84BE84" rx="2.1" ry="2.1" style="stroke: #038048; stroke-width: 0.7;"/><text fill="#000000" font-family="sans-serif" font-size="7.7" lengthAdjust="spacingAndGlyphs" textLength="28" x="530.95" y="379.5456">isValid()</text><!--MD5=[8e7655e92b3546313de9e50e8b169664]
class model.action.MoveAction--><rect fill="#FEFECE" filter="url(#f1wum8zhb3pqv5)" height="82.0258" id="model.action.MoveAction" style="stroke: #A80036; stroke-width: 1.0499999999999998;" width="106.4" x="268.8" y="187.7969"/><ellipse cx="297.885" cy="198.9969" fill="#ADD1B2" rx="7.7" ry="7.7" style="stroke: #A80036; stroke-width: 0.7;"/><path d="M299.285,196.5469 Q299.4272,196.1969 299.5913,196.0219 Q299.7553,195.8469 299.9412,195.8469 Q300.2694,195.8469 300.4772,196.0438 Q300.685,196.2406 300.685,196.7 L300.685,197.7938 Q300.685,198.2531 300.4881,198.45 Q300.2913,198.6469 299.985,198.6469 Q299.7116,198.6469 299.5366,198.5266 Q299.3616,198.4063 299.285,198.0891 Q299.2522,197.8703 299.1319,197.75 Q298.9131,197.5203 298.5194,197.3891 Q298.1256,197.2469 297.7319,197.2469 Q297.2397,197.2469 296.8241,197.4438 Q296.4194,197.6406 296.1022,198.0781 Q295.785,198.5156 295.785,199.1172 L295.785,199.7625 Q295.785,200.4844 296.3756,200.9656 Q296.9663,201.4469 298.0163,201.4469 Q298.6397,201.4469 299.0772,201.3047 Q299.3288,201.2281 299.6131,200.9766 Q299.7991,200.8344 299.8975,200.7906 Q299.9959,200.7469 300.1163,200.7469 Q300.3459,200.7469 300.51,200.9328 Q300.685,201.1078 300.685,201.3594 Q300.685,201.6 300.4444,201.8844 Q300.0944,202.3 299.5366,202.5297 Q298.8038,202.8469 297.9069,202.8469 Q296.8569,202.8469 296.0147,202.4312 Q295.3366,202.1031 294.8553,201.3922 Q294.385,200.6812 294.385,199.8391 L294.385,199.0734 Q294.385,198.1984 294.8006,197.4328 Q295.2272,196.6672 295.96,196.2625 Q296.7038,195.8469 297.535,195.8469 Q298.0381,195.8469 298.4756,196.0219 Q298.9131,196.1969 299.285,196.5469 Z "/><text fill="#000000" font-family="sans-serif" font-size="8.4" lengthAdjust="spacingAndGlyphs" textLength="42.7" x="311.815" y="202.434">MoveAction</text><line style="stroke: #A80036; stroke-width: 1.0499999999999998;" x1="269.5" x2="374.5" y1="210.1969" y2="210.1969"/><line style="stroke: #A80036; stroke-width: 1.0499999999999998;" x1="269.5" x2="374.5" y1="215.7969" y2="215.7969"/><ellipse cx="276.5" cy="223.4969" fill="#84BE84" rx="2.1" ry="2.1" style="stroke: #038048; stroke-width: 0.7;"/><text fill="#000000" font-family="sans-serif" font-size="7.7" lengthAdjust="spacingAndGlyphs" textLength="45.5" x="282.8" y="226.5901">MoveAction()</text><ellipse cx="276.5" cy="233.182" fill="#84BE84" rx="2.1" ry="2.1" style="stroke: #038048; stroke-width: 0.7;"/><text fill="#000000" font-family="sans-serif" font-size="7.7" lengthAdjust="spacingAndGlyphs" textLength="35.7" x="282.8" y="236.2753">doAction()</text><ellipse cx="276.5" cy="242.8672" fill="#84BE84" rx="2.1" ry="2.1" style="stroke: #038048; stroke-width: 0.7;"/><text fill="#000000" font-family="sans-serif" font-size="7.7" lengthAdjust="spacingAndGlyphs" textLength="28" x="282.8" y="245.9604">isValid()</text><ellipse cx="276.5" cy="252.5523" fill="#84BE84" rx="2.1" ry="2.1" style="stroke: #038048; stroke-width: 0.7;"/><text fill="#000000" font-family="sans-serif" font-size="7.7" lengthAdjust="spacingAndGlyphs" textLength="50.4" x="282.8" y="255.6456">winningMove()</text><polygon fill="#4177AF" points="276.5,259.4375,273.7,263.6375,279.3,263.6375" style="stroke: #1963A0; stroke-width: 0.7;"/><text fill="#000000" font-family="sans-serif" font-size="7.7" lengthAdjust="spacingAndGlyphs" textLength="88.2" x="282.8" y="265.3308">checkGodsPowerActive()</text><!--MD5=[e24cc953d8487a27543ec93bfc81487d]
class model.action.PlaceWorkerAction--><rect fill="#FEFECE" filter="url(#f1wum8zhb3pqv5)" height="62.6555" id="model.action.PlaceWorkerAction" style="stroke: #A80036; stroke-width: 1.0499999999999998;" width="94.5" x="400.05" y="197.2469"/><ellipse cx="410.55" cy="208.4469" fill="#ADD1B2" rx="7.7" ry="7.7" style="stroke: #A80036; stroke-width: 0.7;"/><path d="M411.95,205.9969 Q412.0922,205.6469 412.2562,205.4719 Q412.4203,205.2969 412.6063,205.2969 Q412.9344,205.2969 413.1422,205.4937 Q413.35,205.6906 413.35,206.15 L413.35,207.2437 Q413.35,207.7031 413.1531,207.9 Q412.9562,208.0969 412.65,208.0969 Q412.3766,208.0969 412.2016,207.9766 Q412.0266,207.8563 411.95,207.5391 Q411.9172,207.3203 411.7969,207.2 Q411.5781,206.9703 411.1844,206.8391 Q410.7906,206.6969 410.3969,206.6969 Q409.9047,206.6969 409.4891,206.8937 Q409.0844,207.0906 408.7672,207.5281 Q408.45,207.9656 408.45,208.5672 L408.45,209.2125 Q408.45,209.9344 409.0406,210.4156 Q409.6312,210.8969 410.6813,210.8969 Q411.3047,210.8969 411.7422,210.7547 Q411.9938,210.6781 412.2781,210.4266 Q412.4641,210.2844 412.5625,210.2406 Q412.6609,210.1969 412.7813,210.1969 Q413.0109,210.1969 413.175,210.3828 Q413.35,210.5578 413.35,210.8094 Q413.35,211.05 413.1094,211.3344 Q412.7594,211.75 412.2016,211.9797 Q411.4688,212.2969 410.5719,212.2969 Q409.5219,212.2969 408.6797,211.8813 Q408.0016,211.5531 407.5203,210.8422 Q407.05,210.1313 407.05,209.2891 L407.05,208.5234 Q407.05,207.6484 407.4656,206.8828 Q407.8922,206.1172 408.625,205.7125 Q409.3688,205.2969 410.2,205.2969 Q410.7031,205.2969 411.1406,205.4719 Q411.5781,205.6469 411.95,205.9969 Z "/><text fill="#000000" font-family="sans-serif" font-size="8.4" lengthAdjust="spacingAndGlyphs" textLength="72.1" x="420.35" y="211.884">PlaceWorkerAction</text><line style="stroke: #A80036; stroke-width: 1.0499999999999998;" x1="400.75" x2="493.85" y1="219.6469" y2="219.6469"/><line style="stroke: #A80036; stroke-width: 1.0499999999999998;" x1="400.75" x2="493.85" y1="225.2469" y2="225.2469"/><ellipse cx="407.75" cy="232.9469" fill="#84BE84" rx="2.1" ry="2.1" style="stroke: #038048; stroke-width: 0.7;"/><text fill="#000000" font-family="sans-serif" font-size="7.7" lengthAdjust="spacingAndGlyphs" textLength="70" x="414.05" y="236.0401">PlaceWorkerAction()</text><ellipse cx="407.75" cy="242.632" fill="#84BE84" rx="2.1" ry="2.1" style="stroke: #038048; stroke-width: 0.7;"/><text fill="#000000" font-family="sans-serif" font-size="7.7" lengthAdjust="spacingAndGlyphs" textLength="35.7" x="414.05" y="245.7253">doAction()</text><ellipse cx="407.75" cy="252.3172" fill="#84BE84" rx="2.1" ry="2.1" style="stroke: #038048; stroke-width: 0.7;"/><text fill="#000000" font-family="sans-serif" font-size="7.7" lengthAdjust="spacingAndGlyphs" textLength="28" x="414.05" y="255.4104">isValid()</text><!--MD5=[b1f6f78b1f2413cede8a359934ca3c6b]
class model.action.SelectWorkerAction--><rect fill="#FEFECE" filter="url(#f1wum8zhb3pqv5)" height="62.6555" id="model.action.SelectWorkerAction" style="stroke: #A80036; stroke-width: 1.0499999999999998;" width="96.6" x="519.4" y="197.2469"/><ellipse cx="529.9" cy="208.4469" fill="#ADD1B2" rx="7.7" ry="7.7" style="stroke: #A80036; stroke-width: 0.7;"/><path d="M531.3,205.9969 Q531.4422,205.6469 531.6062,205.4719 Q531.7703,205.2969 531.9563,205.2969 Q532.2844,205.2969 532.4922,205.4937 Q532.7,205.6906 532.7,206.15 L532.7,207.2437 Q532.7,207.7031 532.5031,207.9 Q532.3063,208.0969 532,208.0969 Q531.7266,208.0969 531.5516,207.9766 Q531.3766,207.8563 531.3,207.5391 Q531.2672,207.3203 531.1469,207.2 Q530.9281,206.9703 530.5344,206.8391 Q530.1406,206.6969 529.7469,206.6969 Q529.2547,206.6969 528.8391,206.8937 Q528.4344,207.0906 528.1172,207.5281 Q527.8,207.9656 527.8,208.5672 L527.8,209.2125 Q527.8,209.9344 528.3906,210.4156 Q528.9812,210.8969 530.0313,210.8969 Q530.6547,210.8969 531.0922,210.7547 Q531.3438,210.6781 531.6281,210.4266 Q531.8141,210.2844 531.9125,210.2406 Q532.0109,210.1969 532.1313,210.1969 Q532.3609,210.1969 532.525,210.3828 Q532.7,210.5578 532.7,210.8094 Q532.7,211.05 532.4594,211.3344 Q532.1094,211.75 531.5516,211.9797 Q530.8188,212.2969 529.9219,212.2969 Q528.8719,212.2969 528.0297,211.8813 Q527.3516,211.5531 526.8703,210.8422 Q526.4,210.1313 526.4,209.2891 L526.4,208.5234 Q526.4,207.6484 526.8156,206.8828 Q527.2422,206.1172 527.975,205.7125 Q528.7188,205.2969 529.55,205.2969 Q530.0531,205.2969 530.4906,205.4719 Q530.9281,205.6469 531.3,205.9969 Z "/><text fill="#000000" font-family="sans-serif" font-size="8.4" lengthAdjust="spacingAndGlyphs" textLength="74.2" x="539.7" y="211.884">SelectWorkerAction</text><line style="stroke: #A80036; stroke-width: 1.0499999999999998;" x1="520.1" x2="615.3" y1="219.6469" y2="219.6469"/><line style="stroke: #A80036; stroke-width: 1.0499999999999998;" x1="520.1" x2="615.3" y1="225.2469" y2="225.2469"/><ellipse cx="527.1" cy="232.9469" fill="#84BE84" rx="2.1" ry="2.1" style="stroke: #038048; stroke-width: 0.7;"/><text fill="#000000" font-family="sans-serif" font-size="7.7" lengthAdjust="spacingAndGlyphs" textLength="72.8" x="533.4" y="236.0401">SelectWorkerAction()</text><ellipse cx="527.1" cy="242.632" fill="#84BE84" rx="2.1" ry="2.1" style="stroke: #038048; stroke-width: 0.7;"/><text fill="#000000" font-family="sans-serif" font-size="7.7" lengthAdjust="spacingAndGlyphs" textLength="35.7" x="533.4" y="245.7253">doAction()</text><ellipse cx="527.1" cy="252.3172" fill="#84BE84" rx="2.1" ry="2.1" style="stroke: #038048; stroke-width: 0.7;"/><text fill="#000000" font-family="sans-serif" font-size="7.7" lengthAdjust="spacingAndGlyphs" textLength="28" x="533.4" y="255.4104">isValid()</text><!--MD5=[5552bd7ae5484683124a994b6a064651]
class model.action.ZeusBuildAction--><rect fill="#FEFECE" filter="url(#f1wum8zhb3pqv5)" height="52.9703" id="model.action.ZeusBuildAction" style="stroke: #A80036; stroke-width: 1.0499999999999998;" width="84.7" x="291.55" y="321.1469"/><ellipse cx="302.05" cy="332.3469" fill="#ADD1B2" rx="7.7" ry="7.7" style="stroke: #A80036; stroke-width: 0.7;"/><path d="M303.45,329.8969 Q303.5922,329.5469 303.7562,329.3719 Q303.9203,329.1969 304.1063,329.1969 Q304.4344,329.1969 304.6422,329.3937 Q304.85,329.5906 304.85,330.05 L304.85,331.1437 Q304.85,331.6031 304.6531,331.8 Q304.4562,331.9969 304.15,331.9969 Q303.8766,331.9969 303.7016,331.8766 Q303.5266,331.7562 303.45,331.4391 Q303.4172,331.2203 303.2969,331.1 Q303.0781,330.8703 302.6844,330.7391 Q302.2906,330.5969 301.8969,330.5969 Q301.4047,330.5969 300.9891,330.7938 Q300.5844,330.9906 300.2672,331.4281 Q299.95,331.8656 299.95,332.4672 L299.95,333.1125 Q299.95,333.8344 300.5406,334.3156 Q301.1312,334.7969 302.1813,334.7969 Q302.8047,334.7969 303.2422,334.6547 Q303.4938,334.5781 303.7781,334.3266 Q303.9641,334.1844 304.0625,334.1406 Q304.1609,334.0969 304.2813,334.0969 Q304.5109,334.0969 304.675,334.2828 Q304.85,334.4578 304.85,334.7094 Q304.85,334.95 304.6094,335.2344 Q304.2594,335.65 303.7016,335.8797 Q302.9688,336.1969 302.0719,336.1969 Q301.0219,336.1969 300.1797,335.7813 Q299.5016,335.4531 299.0203,334.7422 Q298.55,334.0313 298.55,333.1891 L298.55,332.4234 Q298.55,331.5484 298.9656,330.7828 Q299.3922,330.0172 300.125,329.6125 Q300.8688,329.1969 301.7,329.1969 Q302.2031,329.1969 302.6406,329.3719 Q303.0781,329.5469 303.45,329.8969 Z "/><text fill="#000000" font-family="sans-serif" font-size="8.4" lengthAdjust="spacingAndGlyphs" textLength="62.3" x="311.85" y="335.784">ZeusBuildAction</text><line style="stroke: #A80036; stroke-width: 1.0499999999999998;" x1="292.25" x2="375.55" y1="343.5469" y2="343.5469"/><line style="stroke: #A80036; stroke-width: 1.0499999999999998;" x1="292.25" x2="375.55" y1="349.1469" y2="349.1469"/><ellipse cx="299.25" cy="356.8469" fill="#84BE84" rx="2.1" ry="2.1" style="stroke: #038048; stroke-width: 0.7;"/><text fill="#000000" font-family="sans-serif" font-size="7.7" lengthAdjust="spacingAndGlyphs" textLength="60.9" x="305.55" y="359.9401">ZeusBuildAction()</text><ellipse cx="299.25" cy="366.532" fill="#84BE84" rx="2.1" ry="2.1" style="stroke: #038048; stroke-width: 0.7;"/><text fill="#000000" font-family="sans-serif" font-size="7.7" lengthAdjust="spacingAndGlyphs" textLength="28" x="305.55" y="369.6253">isValid()</text><!--MD5=[c27332609f9983ec4d90401e983b19c9]
reverse link model.action.MoveAction to model.action.ApolloSwapAction--><path d="M375.249,279.6999 C388.374,292.0899 402.052,305.0049 413.875,316.1629 " fill="none" id="model.action.MoveAction&lt;-model.action.ApolloSwapAction" style="stroke: #A80036; stroke-width: 0.7;"/><polygon fill="none" points="371.7,283.0879,364.882,269.9209,378.427,275.9619,371.7,283.0879" style="stroke: #A80036; stroke-width: 0.7;"/><!--MD5=[e8700b51ad82ef79ff3da3a011e5da86]
reverse link model.action.Action to model.action.BuildAction--><path d="M345.009,131.8739 C319.214,146.5249 285.145,166.9859 256.9,187.7969 C252.658,190.9259 248.332,194.3629 244.125,197.8769 " fill="none" id="model.action.Action&lt;-model.action.BuildAction" style="stroke: #A80036; stroke-width: 0.7; stroke-dasharray: 7.0,7.0;"/><polygon fill="none" points="342.699,127.5479,357.308,124.9719,347.494,136.0949,342.699,127.5479" style="stroke: #A80036; stroke-width: 0.7;"/><!--MD5=[3bee5673b79a858139b648d5cd6ee5ea]
reverse link model.action.BuildAction to model.action.BuildDomeAction--><path d="M215.677,274.3309 C217.182,290.1509 218.827,307.3989 220.129,321.1259 " fill="none" id="model.action.BuildAction&lt;-model.action.BuildDomeAction" style="stroke: #A80036; stroke-width: 0.7;"/><polygon fill="none" points="210.791,274.7439,214.34,260.3449,220.549,273.8199,210.791,274.7439" style="stroke: #A80036; stroke-width: 0.7;"/><!--MD5=[c6b6d00c10e198c63c172ded5ffe5ee6]
reverse link model.action.MoveAction to model.action.MinotaurPushAction--><path d="M388.171,269.3469 C440.216,292.9789 458.206,290.2069 504.7,311.6969 C508.732,313.5589 512.841,315.5959 516.936,317.7239 " fill="none" id="model.action.MoveAction&lt;-model.action.MinotaurPushAction" style="stroke: #A80036; stroke-width: 0.7;"/><polygon fill="none" points="385.945,273.7079,375.361,263.3129,390.117,264.8459,385.945,273.7079" style="stroke: #A80036; stroke-width: 0.7;"/><!--MD5=[7360d280c12328c26d53371317f4328b]
reverse link model.action.Action to model.action.MoveAction--><path d="M363.832,149.0869 C357.273,161.4629 350,175.1969 343.378,187.6919 " fill="none" id="model.action.Action&lt;-model.action.MoveAction" style="stroke: #A80036; stroke-width: 0.7; stroke-dasharray: 7.0,7.0;"/><polygon fill="none" points="359.59,146.6229,370.475,136.5429,368.249,151.2079,359.59,146.6229" style="stroke: #A80036; stroke-width: 0.7;"/><!--MD5=[d65b0cdf071086b9d0753300eed5af3d]
reverse link model.action.Action to model.action.PlaceWorkerAction--><path d="M404.985,149.0519 C413.357,164.6829 422.891,182.4839 430.787,197.2259 " fill="none" id="model.action.Action&lt;-model.action.PlaceWorkerAction" style="stroke: #A80036; stroke-width: 0.7; stroke-dasharray: 7.0,7.0;"/><polygon fill="none" points="400.575,151.2009,398.279,136.5429,409.213,146.5739,400.575,151.2009" style="stroke: #A80036; stroke-width: 0.7;"/><!--MD5=[476ab4f2cdd2131edd5379326e0ca996]
reverse link model.action.Action to model.action.SelectWorkerAction--><path d="M423.29,134.7789 C447.426,149.9059 479.003,169.8419 506.8,187.7969 C511.483,190.8209 516.355,193.9989 521.213,197.1839 " fill="none" id="model.action.Action&lt;-model.action.SelectWorkerAction" style="stroke: #A80036; stroke-width: 0.7; stroke-dasharray: 7.0,7.0;"/><polygon fill="none" points="420.672,138.9229,411.411,127.3379,425.873,130.6139,420.672,138.9229" style="stroke: #A80036; stroke-width: 0.7;"/><!--MD5=[0439d69a2e40a500e89e1a7805b68917]
reverse link model.action.BuildAction to model.action.ZeusBuildAction--><path d="M253.904,270.2499 C271.488,287.1339 291.361,306.2089 306.901,321.1259 " fill="none" id="model.action.BuildAction&lt;-model.action.ZeusBuildAction" style="stroke: #A80036; stroke-width: 0.7;"/><polygon fill="none" points="250.292,273.5749,243.586,260.3449,257.075,266.5049,250.292,273.5749" style="stroke: #A80036; stroke-width: 0.7;"/><text fill="#888888" font-family="sans-serif" font-size="7" lengthAdjust="spacingAndGlyphs" textLength="0" x="651" y="420.4635"/><text fill="#888888" font-family="sans-serif" font-size="7" lengthAdjust="spacingAndGlyphs" textLength="0" x="651" y="429.2682"/><text fill="#888888" font-family="sans-serif" font-size="7" lengthAdjust="spacingAndGlyphs" textLength="274.4" x="376.6" y="438.0729">PlantUML diagram generated by SketchIt! (https://bitbucket.org/pmesmeur/sketch.it)</text><text fill="#888888" font-family="sans-serif" font-size="7" lengthAdjust="spacingAndGlyphs" textLength="275.8" x="375.2" y="446.8775">For more information about this tool, please contact philippe.mesmeur@gmail.com</text><!--MD5=[4ff87452ce644132f9111cd083d989c9]
@startuml

title __ACTION Class Diagram__\n


        namespace action {
          interface model.action.Action {
              {abstract} + doAction()
              {abstract} + isValid()
          }
        }

  


        namespace action {
          enum ActionOutcome {
            DONE
            DONE_CAN_BE_DONE_AGAIN
            NOT_DONE
            WINNING_MOVE

          }
        }

  


        namespace action {
          class model.action.ApolloSwapAction {
              + ApolloSwapAction()
              + doAction()
              + isValid()
          }
        }

  


        namespace action {
          class model.action.BuildAction {
              + BuildAction()
              + doAction()
              + isValid()
          }
        }

  


        namespace action {
          class model.action.BuildDomeAction {
              + BuildDomeAction()
              + doAction()
          }
        }

  


        namespace action {
          class model.action.MinotaurPushAction {
              + MinotaurPushAction()
              + doAction()
              + getBackwardInfo()
              + isValid()
          }
        }

  


        namespace action {
          class model.action.MoveAction {
              + MoveAction()
              + doAction()
              + isValid()
              + winningMove()
              ~ checkGodsPowerActive()
          }
        }

  


        namespace action {
          class model.action.PlaceWorkerAction {
              + PlaceWorkerAction()
              + doAction()
              + isValid()
          }
        }

  


        namespace action {
          class model.action.SelectWorkerAction {
              + SelectWorkerAction()
              + doAction()
              + isValid()
          }
        }

  


        namespace action {
          class model.action.ZeusBuildAction {
              + ZeusBuildAction()
              + isValid()
          }
        }

  

model.action.ApolloSwapAction -up-|> model.action.MoveAction
model.action.BuildAction .up.|> model.action.Action
model.action.BuildDomeAction -up-|> model.action.BuildAction
model.action.MinotaurPushAction -up-|> model.action.MoveAction
model.action.MoveAction .up.|> model.action.Action
model.action.PlaceWorkerAction .up.|> model.action.Action
model.action.SelectWorkerAction .up.|> model.action.Action
model.action.ZeusBuildAction -up-|> model.action.BuildAction


right footer


PlantUML diagram generated by SketchIt! (https://bitbucket.org/pmesmeur/sketch.it)
For more information about this tool, please contact philippe.mesmeur@gmail.com
endfooter

@enduml

PlantUML version 1.2020.09(Sun May 10 12:51:06 CEST 2020)
(GPL source distribution)
Java Runtime: OpenJDK Runtime Environment
JVM: OpenJDK 64-Bit Server VM
Java Version: 11.0.6+8-b765.25
Operating System: Windows 10
Default Encoding: Cp1252
Language: it
Country: IT
--></g></svg>