<?xml version="1.0" encoding="UTF-8" standalone="no"?><svg xmlns="http://www.w3.org/2000/svg" xmlns:xlink="http://www.w3.org/1999/xlink" contentScriptType="application/ecmascript" contentStyleType="text/css" height="828px" preserveAspectRatio="none" style="width:2399px;height:828px;" version="1.1" viewBox="0 0 2399 828" width="2399.4px" zoomAndPan="magnify"><defs><filter height="300%" id="f1vgwm1tlf8ab4" width="300%" x="-1" y="-1"><feGaussianBlur result="blurOut" stdDeviation="1.8"/><feColorMatrix in="blurOut" result="blurOut2" type="matrix" values="0 0 0 0 0 0 0 0 0 0 0 0 0 0 0 0 0 0 .4 0"/><feOffset dx="3.6" dy="3.6" in="blurOut2" result="blurOut3"/><feBlend in="SourceGraphic" in2="blurOut3" mode="normal"/></filter></defs><g><text fill="#000000" font-family="sans-serif" font-size="16.2" lengthAdjust="spacingAndGlyphs" text-decoration="underline" textLength="218.7" x="1084.95" y="16.817">GODSPOWER Class Diagram</text><text fill="#000000" font-family="sans-serif" font-size="16.2" lengthAdjust="spacingAndGlyphs" textLength="0" x="1196.55" y="37.1936"/><!--MD5=[6d1de5cb6942031b61ec95af3cca40b6]
cluster model.god.godspower--><polygon fill="#FFFFFF" filter="url(#f1vgwm1tlf8ab4)" points="156.6,62.3531,303.3,62.3531,309.6,83.6016,2223,83.6016,2223,749.9531,156.6,749.9531,156.6,62.3531" style="stroke: #000000; stroke-width: 1.35;"/><line style="stroke: #000000; stroke-width: 1.35;" x1="156.6" x2="309.6" y1="83.6016" y2="83.6016"/><text fill="#000000" font-family="sans-serif" font-size="12.6" font-weight="bold" lengthAdjust="spacingAndGlyphs" textLength="141.3" x="160.2" y="77.233">model.god.godspower</text><!--MD5=[0d852700fdad35b7061d461d6907a324]
cluster java.io--><polygon fill="#FFFFFF" filter="url(#f1vgwm1tlf8ab4)" points="19.8,112.3031,66.6,112.3031,72.9,133.5516,135,133.5516,135,202.3031,19.8,202.3031,19.8,112.3031" style="stroke: #000000; stroke-width: 1.35;"/><line style="stroke: #000000; stroke-width: 1.35;" x1="19.8" x2="72.9" y1="133.5516" y2="133.5516"/><text fill="#000000" font-family="sans-serif" font-size="12.6" font-weight="bold" lengthAdjust="spacingAndGlyphs" textLength="41.4" x="23.4" y="127.183">java.io</text><!--MD5=[6bd88fccd64e8635d8cb2d98e3abd9fa]
cluster model.god--><polygon fill="#FFFFFF" filter="url(#f1vgwm1tlf8ab4)" points="2244.6,616.3031,2316.6,616.3031,2322.9,637.5516,2358,637.5516,2358,706.3031,2244.6,706.3031,2244.6,616.3031" style="stroke: #000000; stroke-width: 1.35;"/><line style="stroke: #000000; stroke-width: 1.35;" x1="2244.6" x2="2322.9" y1="637.5516" y2="637.5516"/><text fill="#000000" font-family="sans-serif" font-size="12.6" font-weight="bold" lengthAdjust="spacingAndGlyphs" textLength="66.6" x="2248.2" y="631.183">model.god</text><!--MD5=[30b0cca0563b516514e5f7d443fcb898]
class model.god.godspower.ApolloPower--><rect fill="#FEFECE" filter="url(#f1vgwm1tlf8ab4)" height="80.557" id="model.god.godspower.ApolloPower" style="stroke: #A80036; stroke-width: 1.35;" width="93.6" x="1901.7" y="629.8031"/><ellipse cx="1916.415" cy="644.2031" fill="#ADD1B2" rx="9.9" ry="9.9" style="stroke: #A80036; stroke-width: 0.9;"/><path d="M1918.215,641.0531 Q1918.3978,640.6031 1918.6087,640.3781 Q1918.8197,640.1531 1919.0588,640.1531 Q1919.4806,640.1531 1919.7478,640.4063 Q1920.015,640.6594 1920.015,641.25 L1920.015,642.6563 Q1920.015,643.2469 1919.7619,643.5 Q1919.5088,643.7531 1919.115,643.7531 Q1918.7634,643.7531 1918.5384,643.5984 Q1918.3134,643.4438 1918.215,643.0359 Q1918.1728,642.7547 1918.0181,642.6 Q1917.7369,642.3047 1917.2306,642.1359 Q1916.7244,641.9531 1916.2181,641.9531 Q1915.5853,641.9531 1915.0509,642.2063 Q1914.5306,642.4594 1914.1228,643.0219 Q1913.715,643.5844 1913.715,644.3578 L1913.715,645.1875 Q1913.715,646.1156 1914.4744,646.7344 Q1915.2337,647.3531 1916.5838,647.3531 Q1917.3853,647.3531 1917.9478,647.1703 Q1918.2713,647.0719 1918.6369,646.7484 Q1918.8759,646.5656 1919.0025,646.5094 Q1919.1291,646.4531 1919.2838,646.4531 Q1919.5791,646.4531 1919.79,646.6922 Q1920.015,646.9172 1920.015,647.2406 Q1920.015,647.55 1919.7056,647.9156 Q1919.2556,648.45 1918.5384,648.7453 Q1917.5963,649.1531 1916.4431,649.1531 Q1915.0931,649.1531 1914.0103,648.6188 Q1913.1384,648.1969 1912.5197,647.2828 Q1911.915,646.3688 1911.915,645.2859 L1911.915,644.3016 Q1911.915,643.1766 1912.4494,642.1922 Q1912.9978,641.2078 1913.94,640.6875 Q1914.8963,640.1531 1915.965,640.1531 Q1916.6119,640.1531 1917.1744,640.3781 Q1917.7369,640.6031 1918.215,641.0531 Z "/><text fill="#000000" font-family="sans-serif" font-size="10.8" lengthAdjust="spacingAndGlyphs" textLength="62.1" x="1929.285" y="648.6223">ApolloPower</text><line style="stroke: #A80036; stroke-width: 1.35;" x1="1902.6" x2="1994.4" y1="658.6031" y2="658.6031"/><line style="stroke: #A80036; stroke-width: 1.35;" x1="1902.6" x2="1994.4" y1="665.8031" y2="665.8031"/><ellipse cx="1911.6" cy="675.7031" fill="#84BE84" rx="2.7" ry="2.7" style="stroke: #038048; stroke-width: 0.9;"/><text fill="#000000" font-family="sans-serif" font-size="9.9" lengthAdjust="spacingAndGlyphs" textLength="63" x="1919.7" y="679.6802">ApolloPower()</text><ellipse cx="1911.6" cy="688.1555" fill="#84BE84" rx="2.7" ry="2.7" style="stroke: #038048; stroke-width: 0.9;"/><text fill="#000000" font-family="sans-serif" font-size="9.9" lengthAdjust="spacingAndGlyphs" textLength="70.2" x="1919.7" y="692.1325">isWorkerStuck()</text><ellipse cx="1911.6" cy="700.6078" fill="#84BE84" rx="2.7" ry="2.7" style="stroke: #038048; stroke-width: 0.9;"/><text fill="#000000" font-family="sans-serif" font-size="9.9" lengthAdjust="spacingAndGlyphs" textLength="30.6" x="1919.7" y="704.5849">move()</text><!--MD5=[db17dbc9ea92b847762a406284fb9b37]
class model.god.godspower.ArtemisPower--><rect fill="#FEFECE" filter="url(#f1vgwm1tlf8ab4)" height="105.4617" id="model.god.godspower.ArtemisPower" style="stroke: #A80036; stroke-width: 1.35;" width="130.5" x="355.95" y="617.6531"/><ellipse cx="384.03" cy="632.0531" fill="#ADD1B2" rx="9.9" ry="9.9" style="stroke: #A80036; stroke-width: 0.9;"/><path d="M385.83,628.9031 Q386.0128,628.4531 386.2238,628.2281 Q386.4347,628.0031 386.6738,628.0031 Q387.0956,628.0031 387.3628,628.2563 Q387.63,628.5094 387.63,629.1 L387.63,630.5063 Q387.63,631.0969 387.3769,631.35 Q387.1238,631.6031 386.73,631.6031 Q386.3784,631.6031 386.1534,631.4484 Q385.9284,631.2938 385.83,630.8859 Q385.7878,630.6047 385.6331,630.45 Q385.3519,630.1547 384.8456,629.9859 Q384.3394,629.8031 383.8331,629.8031 Q383.2003,629.8031 382.6659,630.0563 Q382.1456,630.3094 381.7378,630.8719 Q381.33,631.4344 381.33,632.2078 L381.33,633.0375 Q381.33,633.9656 382.0894,634.5844 Q382.8488,635.2031 384.1988,635.2031 Q385.0003,635.2031 385.5628,635.0203 Q385.8863,634.9219 386.2519,634.5984 Q386.4909,634.4156 386.6175,634.3594 Q386.7441,634.3031 386.8988,634.3031 Q387.1941,634.3031 387.405,634.5422 Q387.63,634.7672 387.63,635.0906 Q387.63,635.4 387.3206,635.7656 Q386.8706,636.3 386.1534,636.5953 Q385.2113,637.0031 384.0581,637.0031 Q382.7081,637.0031 381.6253,636.4688 Q380.7534,636.0469 380.1347,635.1328 Q379.53,634.2188 379.53,633.1359 L379.53,632.1516 Q379.53,631.0266 380.0644,630.0422 Q380.6128,629.0578 381.555,628.5375 Q382.5113,628.0031 383.58,628.0031 Q384.2269,628.0031 384.7894,628.2281 Q385.3519,628.4531 385.83,628.9031 Z "/><text fill="#000000" font-family="sans-serif" font-size="10.8" lengthAdjust="spacingAndGlyphs" textLength="69.3" x="399.87" y="636.4723">ArtemisPower</text><line style="stroke: #A80036; stroke-width: 1.35;" x1="356.85" x2="485.55" y1="646.4531" y2="646.4531"/><line style="stroke: #A80036; stroke-width: 1.35;" x1="356.85" x2="485.55" y1="653.6531" y2="653.6531"/><ellipse cx="365.85" cy="663.5531" fill="#84BE84" rx="2.7" ry="2.7" style="stroke: #038048; stroke-width: 0.9;"/><text fill="#000000" font-family="sans-serif" font-size="9.9" lengthAdjust="spacingAndGlyphs" textLength="69.3" x="373.95" y="667.5302">ArtemisPower()</text><ellipse cx="365.85" cy="676.0055" fill="#84BE84" rx="2.7" ry="2.7" style="stroke: #038048; stroke-width: 0.9;"/><text fill="#000000" font-family="sans-serif" font-size="9.9" lengthAdjust="spacingAndGlyphs" textLength="30.6" x="373.95" y="679.9825">move()</text><ellipse cx="365.85" cy="688.4578" fill="#84BE84" rx="2.7" ry="2.7" style="stroke: #038048; stroke-width: 0.9;"/><text fill="#000000" font-family="sans-serif" font-size="9.9" lengthAdjust="spacingAndGlyphs" textLength="93.6" x="373.95" y="692.4349">powerMustBeReset()</text><ellipse cx="365.85" cy="700.9102" fill="#84BE84" rx="2.7" ry="2.7" style="stroke: #038048; stroke-width: 0.9;"/><text fill="#000000" font-family="sans-serif" font-size="9.9" lengthAdjust="spacingAndGlyphs" textLength="58.5" x="373.95" y="704.8872">resetPower()</text><rect fill="#F24D5C" height="5.4" style="stroke: #C82930; stroke-width: 0.9;" width="5.4" x="363.15" y="710.6625"/><text fill="#000000" font-family="sans-serif" font-size="9.9" lengthAdjust="spacingAndGlyphs" textLength="107.1" x="373.95" y="717.3396">hasNewMoveAvailable()</text><!--MD5=[347d39f685a5b182bc36a02d020fe55a]
class model.god.godspower.AthenaPower--><rect fill="#FEFECE" filter="url(#f1vgwm1tlf8ab4)" height="117.9141" id="model.god.godspower.AthenaPower" style="stroke: #A80036; stroke-width: 1.35;" width="181.8" x="2026.8" y="611.3531"/><ellipse cx="2081.025" cy="625.7531" fill="#ADD1B2" rx="9.9" ry="9.9" style="stroke: #A80036; stroke-width: 0.9;"/><path d="M2082.825,622.6031 Q2083.0078,622.1531 2083.2188,621.9281 Q2083.4297,621.7031 2083.6688,621.7031 Q2084.0906,621.7031 2084.3578,621.9563 Q2084.625,622.2094 2084.625,622.8 L2084.625,624.2063 Q2084.625,624.7969 2084.3719,625.05 Q2084.1188,625.3031 2083.725,625.3031 Q2083.3734,625.3031 2083.1484,625.1484 Q2082.9234,624.9938 2082.825,624.5859 Q2082.7828,624.3047 2082.6281,624.15 Q2082.3469,623.8547 2081.8406,623.6859 Q2081.3344,623.5031 2080.8281,623.5031 Q2080.1953,623.5031 2079.6609,623.7563 Q2079.1406,624.0094 2078.7328,624.5719 Q2078.325,625.1344 2078.325,625.9078 L2078.325,626.7375 Q2078.325,627.6656 2079.0844,628.2844 Q2079.8438,628.9031 2081.1938,628.9031 Q2081.9953,628.9031 2082.5578,628.7203 Q2082.8813,628.6219 2083.2469,628.2984 Q2083.4859,628.1156 2083.6125,628.0594 Q2083.7391,628.0031 2083.8938,628.0031 Q2084.1891,628.0031 2084.4,628.2422 Q2084.625,628.4672 2084.625,628.7906 Q2084.625,629.1 2084.3156,629.4656 Q2083.8656,630 2083.1484,630.2953 Q2082.2063,630.7031 2081.0531,630.7031 Q2079.7031,630.7031 2078.6203,630.1688 Q2077.7484,629.7469 2077.1297,628.8328 Q2076.525,627.9188 2076.525,626.8359 L2076.525,625.8516 Q2076.525,624.7266 2077.0594,623.7422 Q2077.6078,622.7578 2078.55,622.2375 Q2079.5063,621.7031 2080.575,621.7031 Q2081.2219,621.7031 2081.7844,621.9281 Q2082.3469,622.1531 2082.825,622.6031 Z "/><text fill="#000000" font-family="sans-serif" font-size="10.8" lengthAdjust="spacingAndGlyphs" textLength="65.7" x="2099.475" y="630.1723">AthenaPower</text><line style="stroke: #A80036; stroke-width: 1.35;" x1="2027.7" x2="2207.7" y1="640.1531" y2="640.1531"/><rect fill="none" height="5.4" style="stroke: #C82930; stroke-width: 0.9;" width="5.4" x="2034" y="647.3531"/><text fill="#000000" font-family="sans-serif" font-size="9.9" lengthAdjust="spacingAndGlyphs" textLength="75.6" x="2044.8" y="654.0302">goneUp : boolean</text><line style="stroke: #A80036; stroke-width: 1.35;" x1="2027.7" x2="2207.7" y1="659.8055" y2="659.8055"/><ellipse cx="2036.7" cy="669.7055" fill="#84BE84" rx="2.7" ry="2.7" style="stroke: #038048; stroke-width: 0.9;"/><text fill="#000000" font-family="sans-serif" font-size="9.9" lengthAdjust="spacingAndGlyphs" textLength="67.5" x="2044.8" y="673.6825">AthenaPower()</text><ellipse cx="2036.7" cy="682.1578" fill="#84BE84" rx="2.7" ry="2.7" style="stroke: #038048; stroke-width: 0.9;"/><text fill="#000000" font-family="sans-serif" font-size="9.9" lengthAdjust="spacingAndGlyphs" textLength="158.4" x="2044.8" y="686.1349">canPreventsFromPerformingAction()</text><ellipse cx="2036.7" cy="694.6102" fill="#84BE84" rx="2.7" ry="2.7" style="stroke: #038048; stroke-width: 0.9;"/><text fill="#000000" font-family="sans-serif" font-size="9.9" lengthAdjust="spacingAndGlyphs" textLength="120.6" x="2044.8" y="698.5872">checkIfActionNotPermitted()</text><ellipse cx="2036.7" cy="707.0625" fill="#84BE84" rx="2.7" ry="2.7" style="stroke: #038048; stroke-width: 0.9;"/><text fill="#000000" font-family="sans-serif" font-size="9.9" lengthAdjust="spacingAndGlyphs" textLength="58.5" x="2044.8" y="711.0396">hasGoneUp()</text><ellipse cx="2036.7" cy="719.5148" fill="#84BE84" rx="2.7" ry="2.7" style="stroke: #038048; stroke-width: 0.9;"/><text fill="#000000" font-family="sans-serif" font-size="9.9" lengthAdjust="spacingAndGlyphs" textLength="30.6" x="2044.8" y="723.4919">move()</text><!--MD5=[15c3b2ecec8a35d333aeebebeb315830]
class model.god.godspower.AtlasPower--><rect fill="#FEFECE" filter="url(#f1vgwm1tlf8ab4)" height="93.0094" id="model.god.godspower.AtlasPower" style="stroke: #A80036; stroke-width: 1.35;" width="155.7" x="769.95" y="623.9531"/><ellipse cx="816.075" cy="638.3531" fill="#ADD1B2" rx="9.9" ry="9.9" style="stroke: #A80036; stroke-width: 0.9;"/><path d="M817.875,635.2031 Q818.0578,634.7531 818.2688,634.5281 Q818.4797,634.3031 818.7188,634.3031 Q819.1406,634.3031 819.4078,634.5563 Q819.675,634.8094 819.675,635.4 L819.675,636.8063 Q819.675,637.3969 819.4219,637.65 Q819.1688,637.9031 818.775,637.9031 Q818.4234,637.9031 818.1984,637.7484 Q817.9734,637.5938 817.875,637.1859 Q817.8328,636.9047 817.6781,636.75 Q817.3969,636.4547 816.8906,636.2859 Q816.3844,636.1031 815.8781,636.1031 Q815.2453,636.1031 814.7109,636.3563 Q814.1906,636.6094 813.7828,637.1719 Q813.375,637.7344 813.375,638.5078 L813.375,639.3375 Q813.375,640.2656 814.1344,640.8844 Q814.8938,641.5031 816.2438,641.5031 Q817.0453,641.5031 817.6078,641.3203 Q817.9313,641.2219 818.2969,640.8984 Q818.5359,640.7156 818.6625,640.6594 Q818.7891,640.6031 818.9438,640.6031 Q819.2391,640.6031 819.45,640.8422 Q819.675,641.0672 819.675,641.3906 Q819.675,641.7 819.3656,642.0656 Q818.9156,642.6 818.1984,642.8953 Q817.2563,643.3031 816.1031,643.3031 Q814.7531,643.3031 813.6703,642.7688 Q812.7984,642.3469 812.1797,641.4328 Q811.575,640.5188 811.575,639.4359 L811.575,638.4516 Q811.575,637.3266 812.1094,636.3422 Q812.6578,635.3578 813.6,634.8375 Q814.5563,634.3031 815.625,634.3031 Q816.2719,634.3031 816.8344,634.5281 Q817.3969,634.7531 817.875,635.2031 Z "/><text fill="#000000" font-family="sans-serif" font-size="10.8" lengthAdjust="spacingAndGlyphs" textLength="55.8" x="834.525" y="642.7723">AtlasPower</text><line style="stroke: #A80036; stroke-width: 1.35;" x1="770.85" x2="924.75" y1="652.7531" y2="652.7531"/><line style="stroke: #A80036; stroke-width: 1.35;" x1="770.85" x2="924.75" y1="659.9531" y2="659.9531"/><ellipse cx="779.85" cy="669.8531" fill="#84BE84" rx="2.7" ry="2.7" style="stroke: #038048; stroke-width: 0.9;"/><text fill="#000000" font-family="sans-serif" font-size="9.9" lengthAdjust="spacingAndGlyphs" textLength="58.5" x="787.95" y="673.8302">AtlasPower()</text><ellipse cx="779.85" cy="682.3055" fill="#84BE84" rx="2.7" ry="2.7" style="stroke: #038048; stroke-width: 0.9;"/><text fill="#000000" font-family="sans-serif" font-size="9.9" lengthAdjust="spacingAndGlyphs" textLength="51.3" x="787.95" y="686.2825">buildDome()</text><ellipse cx="779.85" cy="694.7578" fill="#84BE84" rx="2.7" ry="2.7" style="stroke: #038048; stroke-width: 0.9;"/><text fill="#000000" font-family="sans-serif" font-size="9.9" lengthAdjust="spacingAndGlyphs" textLength="119.7" x="787.95" y="698.7349">canBuildDomeAtAnyLevel()</text><ellipse cx="779.85" cy="707.2102" fill="#84BE84" rx="2.7" ry="2.7" style="stroke: #038048; stroke-width: 0.9;"/><text fill="#000000" font-family="sans-serif" font-size="9.9" lengthAdjust="spacingAndGlyphs" textLength="132.3" x="787.95" y="711.1872">canUsePowerBeforeBuilding()</text><!--MD5=[8f1225ed0db21e2166dc28a5016d36e5]
class model.god.godspower.ChronusPower--><rect fill="#FEFECE" filter="url(#f1vgwm1tlf8ab4)" height="55.6523" id="model.god.godspower.ChronusPower" style="stroke: #A80036; stroke-width: 1.35;" width="103.5" x="517.95" y="642.4031"/><ellipse cx="531.45" cy="656.8031" fill="#ADD1B2" rx="9.9" ry="9.9" style="stroke: #A80036; stroke-width: 0.9;"/><path d="M533.25,653.6531 Q533.4328,653.2031 533.6438,652.9781 Q533.8547,652.7531 534.0938,652.7531 Q534.5156,652.7531 534.7828,653.0063 Q535.05,653.2594 535.05,653.85 L535.05,655.2563 Q535.05,655.8469 534.7969,656.1 Q534.5438,656.3531 534.15,656.3531 Q533.7984,656.3531 533.5734,656.1984 Q533.3484,656.0438 533.25,655.6359 Q533.2078,655.3547 533.0531,655.2 Q532.7719,654.9047 532.2656,654.7359 Q531.7594,654.5531 531.2531,654.5531 Q530.6203,654.5531 530.0859,654.8063 Q529.5656,655.0594 529.1578,655.6219 Q528.75,656.1844 528.75,656.9578 L528.75,657.7875 Q528.75,658.7156 529.5094,659.3344 Q530.2688,659.9531 531.6188,659.9531 Q532.4203,659.9531 532.9828,659.7703 Q533.3063,659.6719 533.6719,659.3484 Q533.9109,659.1656 534.0375,659.1094 Q534.1641,659.0531 534.3188,659.0531 Q534.6141,659.0531 534.825,659.2922 Q535.05,659.5172 535.05,659.8406 Q535.05,660.15 534.7406,660.5156 Q534.2906,661.05 533.5734,661.3453 Q532.6313,661.7531 531.4781,661.7531 Q530.1281,661.7531 529.0453,661.2188 Q528.1734,660.7969 527.5547,659.8828 Q526.95,658.9688 526.95,657.8859 L526.95,656.9016 Q526.95,655.7766 527.4844,654.7922 Q528.0328,653.8078 528.975,653.2875 Q529.9313,652.7531 531,652.7531 Q531.6469,652.7531 532.2094,652.9781 Q532.7719,653.2031 533.25,653.6531 Z "/><text fill="#000000" font-family="sans-serif" font-size="10.8" lengthAdjust="spacingAndGlyphs" textLength="74.7" x="544.05" y="661.2223">ChronusPower</text><line style="stroke: #A80036; stroke-width: 1.35;" x1="518.85" x2="620.55" y1="671.2031" y2="671.2031"/><line style="stroke: #A80036; stroke-width: 1.35;" x1="518.85" x2="620.55" y1="678.4031" y2="678.4031"/><ellipse cx="527.85" cy="688.3031" fill="#84BE84" rx="2.7" ry="2.7" style="stroke: #038048; stroke-width: 0.9;"/><text fill="#000000" font-family="sans-serif" font-size="9.9" lengthAdjust="spacingAndGlyphs" textLength="72.9" x="535.95" y="692.2802">ChronusPower()</text><!--MD5=[dd28204b4d49ffc55ad4ec59b0ede4ed]
class model.god.godspower.DemeterPower--><rect fill="#FEFECE" filter="url(#f1vgwm1tlf8ab4)" height="93.0094" id="model.god.godspower.DemeterPower" style="stroke: #A80036; stroke-width: 1.35;" width="117" x="957.6" y="623.9531"/><ellipse cx="977.175" cy="638.3531" fill="#ADD1B2" rx="9.9" ry="9.9" style="stroke: #A80036; stroke-width: 0.9;"/><path d="M978.975,635.2031 Q979.1578,634.7531 979.3688,634.5281 Q979.5797,634.3031 979.8188,634.3031 Q980.2406,634.3031 980.5078,634.5563 Q980.775,634.8094 980.775,635.4 L980.775,636.8063 Q980.775,637.3969 980.5219,637.65 Q980.2688,637.9031 979.875,637.9031 Q979.5234,637.9031 979.2984,637.7484 Q979.0734,637.5938 978.975,637.1859 Q978.9328,636.9047 978.7781,636.75 Q978.4969,636.4547 977.9906,636.2859 Q977.4844,636.1031 976.9781,636.1031 Q976.3453,636.1031 975.8109,636.3563 Q975.2906,636.6094 974.8828,637.1719 Q974.475,637.7344 974.475,638.5078 L974.475,639.3375 Q974.475,640.2656 975.2344,640.8844 Q975.9938,641.5031 977.3438,641.5031 Q978.1453,641.5031 978.7078,641.3203 Q979.0313,641.2219 979.3969,640.8984 Q979.6359,640.7156 979.7625,640.6594 Q979.8891,640.6031 980.0438,640.6031 Q980.3391,640.6031 980.55,640.8422 Q980.775,641.0672 980.775,641.3906 Q980.775,641.7 980.4656,642.0656 Q980.0156,642.6 979.2984,642.8953 Q978.3563,643.3031 977.2031,643.3031 Q975.8531,643.3031 974.7703,642.7688 Q973.8984,642.3469 973.2797,641.4328 Q972.675,640.5188 972.675,639.4359 L972.675,638.4516 Q972.675,637.3266 973.2094,636.3422 Q973.7578,635.3578 974.7,634.8375 Q975.6563,634.3031 976.725,634.3031 Q977.3719,634.3031 977.9344,634.5281 Q978.4969,634.7531 978.975,635.2031 Z "/><text fill="#000000" font-family="sans-serif" font-size="10.8" lengthAdjust="spacingAndGlyphs" textLength="74.7" x="991.125" y="642.7723">DemeterPower</text><line style="stroke: #A80036; stroke-width: 1.35;" x1="958.5" x2="1073.7" y1="652.7531" y2="652.7531"/><line style="stroke: #A80036; stroke-width: 1.35;" x1="958.5" x2="1073.7" y1="659.9531" y2="659.9531"/><ellipse cx="967.5" cy="669.8531" fill="#84BE84" rx="2.7" ry="2.7" style="stroke: #038048; stroke-width: 0.9;"/><text fill="#000000" font-family="sans-serif" font-size="9.9" lengthAdjust="spacingAndGlyphs" textLength="72" x="975.6" y="673.8302">DemeterPower()</text><ellipse cx="967.5" cy="682.3055" fill="#84BE84" rx="2.7" ry="2.7" style="stroke: #038048; stroke-width: 0.9;"/><text fill="#000000" font-family="sans-serif" font-size="9.9" lengthAdjust="spacingAndGlyphs" textLength="27" x="975.6" y="686.2825">build()</text><ellipse cx="967.5" cy="694.7578" fill="#84BE84" rx="2.7" ry="2.7" style="stroke: #038048; stroke-width: 0.9;"/><text fill="#000000" font-family="sans-serif" font-size="9.9" lengthAdjust="spacingAndGlyphs" textLength="93.6" x="975.6" y="698.7349">powerMustBeReset()</text><ellipse cx="967.5" cy="707.2102" fill="#84BE84" rx="2.7" ry="2.7" style="stroke: #038048; stroke-width: 0.9;"/><text fill="#000000" font-family="sans-serif" font-size="9.9" lengthAdjust="spacingAndGlyphs" textLength="58.5" x="975.6" y="711.1872">resetPower()</text><!--MD5=[cfc77b8236609dc3436147d1cff486d9]
class model.god.godspower.GodsChecker--><rect fill="#FEFECE" filter="url(#f1vgwm1tlf8ab4)" height="142.8188" id="model.god.godspower.GodsChecker" style="stroke: #A80036; stroke-width: 1.35;" width="185.4" x="1142.1" y="94.7531"/><ellipse cx="1196.775" cy="109.1531" fill="#B4A7E5" rx="9.9" ry="9.9" style="stroke: #A80036; stroke-width: 0.9;"/><path d="M1197.675,106.4531 L1197.675,111.8531 L1199.475,111.8531 L1199.9109,111.8531 L1200.375,112.4156 L1200.375,112.7531 L1200.375,113.0906 L1199.9109,113.6531 L1199.475,113.6531 L1194.075,113.6531 L1193.6391,113.6531 L1193.175,113.0906 L1193.175,112.7531 L1193.175,112.4156 L1193.6391,111.8531 L1194.075,111.8531 L1195.875,111.8531 L1195.875,106.4531 L1194.075,106.4531 L1193.6391,106.4531 L1193.175,105.8906 L1193.175,105.5531 L1193.175,105.2156 L1193.6391,104.6531 L1194.075,104.6531 L1199.475,104.6531 L1199.9109,104.6531 L1200.375,105.2156 L1200.375,105.5531 L1200.375,105.8906 L1199.9109,106.4531 L1199.475,106.4531 L1197.675,106.4531 Z "/><text fill="#000000" font-family="sans-serif" font-size="10.8" font-style="italic" lengthAdjust="spacingAndGlyphs" textLength="68.4" x="1215.225" y="113.5723">GodsChecker</text><line style="stroke: #A80036; stroke-width: 1.35;" x1="1143" x2="1326.6" y1="123.5531" y2="123.5531"/><line style="stroke: #A80036; stroke-width: 1.35;" x1="1143" x2="1326.6" y1="130.7531" y2="130.7531"/><ellipse cx="1152" cy="140.6531" fill="#84BE84" rx="2.7" ry="2.7" style="stroke: #038048; stroke-width: 0.9;"/><text fill="#000000" font-family="sans-serif" font-size="9.9" font-style="italic" lengthAdjust="spacingAndGlyphs" textLength="106.2" x="1160.1" y="144.6302">canBuildBeforeMoving()</text><ellipse cx="1152" cy="153.1055" fill="#84BE84" rx="2.7" ry="2.7" style="stroke: #038048; stroke-width: 0.9;"/><text fill="#000000" font-family="sans-serif" font-size="9.9" font-style="italic" lengthAdjust="spacingAndGlyphs" textLength="120.6" x="1160.1" y="157.0825">canBuildDomeAtAnyLevel()</text><ellipse cx="1152" cy="165.5578" fill="#84BE84" rx="2.7" ry="2.7" style="stroke: #038048; stroke-width: 0.9;"/><text fill="#000000" font-family="sans-serif" font-size="9.9" font-style="italic" lengthAdjust="spacingAndGlyphs" textLength="162" x="1160.1" y="169.5349">canPreventsFromPerformingAction()</text><ellipse cx="1152" cy="178.0102" fill="#84BE84" rx="2.7" ry="2.7" style="stroke: #038048; stroke-width: 0.9;"/><text fill="#000000" font-family="sans-serif" font-size="9.9" font-style="italic" lengthAdjust="spacingAndGlyphs" textLength="132.3" x="1160.1" y="181.9872">canUsePowerBeforeBuilding()</text><ellipse cx="1152" cy="190.4625" fill="#84BE84" rx="2.7" ry="2.7" style="stroke: #038048; stroke-width: 0.9;"/><text fill="#000000" font-family="sans-serif" font-size="9.9" font-style="italic" lengthAdjust="spacingAndGlyphs" textLength="127.8" x="1160.1" y="194.4396">canUsePowerBeforeMoving()</text><ellipse cx="1152" cy="202.9148" fill="#84BE84" rx="2.7" ry="2.7" style="stroke: #038048; stroke-width: 0.9;"/><text fill="#000000" font-family="sans-serif" font-size="9.9" font-style="italic" lengthAdjust="spacingAndGlyphs" textLength="125.1" x="1160.1" y="206.8919">checkIfActionNotPermitted()</text><ellipse cx="1152" cy="215.3672" fill="#84BE84" rx="2.7" ry="2.7" style="stroke: #038048; stroke-width: 0.9;"/><text fill="#000000" font-family="sans-serif" font-size="9.9" font-style="italic" lengthAdjust="spacingAndGlyphs" textLength="56.7" x="1160.1" y="219.3442">resetPower()</text><ellipse cx="1152" cy="227.8195" fill="#84BE84" rx="2.7" ry="2.7" style="stroke: #038048; stroke-width: 0.9;"/><text fill="#000000" font-family="sans-serif" font-size="9.9" font-style="italic" lengthAdjust="spacingAndGlyphs" textLength="72" x="1160.1" y="231.7966">setBuildBefore()</text><!--MD5=[10b9d3079f1f103427dd48b1584b55b8]
class model.god.godspower.HephaestusPower--><rect fill="#FEFECE" filter="url(#f1vgwm1tlf8ab4)" height="93.0094" id="model.god.godspower.HephaestusPower" style="stroke: #A80036; stroke-width: 1.35;" width="121.5" x="1106.55" y="623.9531"/><ellipse cx="1120.05" cy="638.3531" fill="#ADD1B2" rx="9.9" ry="9.9" style="stroke: #A80036; stroke-width: 0.9;"/><path d="M1121.85,635.2031 Q1122.0328,634.7531 1122.2438,634.5281 Q1122.4547,634.3031 1122.6938,634.3031 Q1123.1156,634.3031 1123.3828,634.5563 Q1123.65,634.8094 1123.65,635.4 L1123.65,636.8063 Q1123.65,637.3969 1123.3969,637.65 Q1123.1438,637.9031 1122.75,637.9031 Q1122.3984,637.9031 1122.1734,637.7484 Q1121.9484,637.5938 1121.85,637.1859 Q1121.8078,636.9047 1121.6531,636.75 Q1121.3719,636.4547 1120.8656,636.2859 Q1120.3594,636.1031 1119.8531,636.1031 Q1119.2203,636.1031 1118.6859,636.3563 Q1118.1656,636.6094 1117.7578,637.1719 Q1117.35,637.7344 1117.35,638.5078 L1117.35,639.3375 Q1117.35,640.2656 1118.1094,640.8844 Q1118.8688,641.5031 1120.2188,641.5031 Q1121.0203,641.5031 1121.5828,641.3203 Q1121.9063,641.2219 1122.2719,640.8984 Q1122.5109,640.7156 1122.6375,640.6594 Q1122.7641,640.6031 1122.9188,640.6031 Q1123.2141,640.6031 1123.425,640.8422 Q1123.65,641.0672 1123.65,641.3906 Q1123.65,641.7 1123.3406,642.0656 Q1122.8906,642.6 1122.1734,642.8953 Q1121.2313,643.3031 1120.0781,643.3031 Q1118.7281,643.3031 1117.6453,642.7688 Q1116.7734,642.3469 1116.1547,641.4328 Q1115.55,640.5188 1115.55,639.4359 L1115.55,638.4516 Q1115.55,637.3266 1116.0844,636.3422 Q1116.6328,635.3578 1117.575,634.8375 Q1118.5313,634.3031 1119.6,634.3031 Q1120.2469,634.3031 1120.8094,634.5281 Q1121.3719,634.7531 1121.85,635.2031 Z "/><text fill="#000000" font-family="sans-serif" font-size="10.8" lengthAdjust="spacingAndGlyphs" textLength="92.7" x="1132.65" y="642.7723">HephaestusPower</text><line style="stroke: #A80036; stroke-width: 1.35;" x1="1107.45" x2="1227.15" y1="652.7531" y2="652.7531"/><line style="stroke: #A80036; stroke-width: 1.35;" x1="1107.45" x2="1227.15" y1="659.9531" y2="659.9531"/><ellipse cx="1116.45" cy="669.8531" fill="#84BE84" rx="2.7" ry="2.7" style="stroke: #038048; stroke-width: 0.9;"/><text fill="#000000" font-family="sans-serif" font-size="9.9" lengthAdjust="spacingAndGlyphs" textLength="88.2" x="1124.55" y="673.8302">HephaestusPower()</text><ellipse cx="1116.45" cy="682.3055" fill="#84BE84" rx="2.7" ry="2.7" style="stroke: #038048; stroke-width: 0.9;"/><text fill="#000000" font-family="sans-serif" font-size="9.9" lengthAdjust="spacingAndGlyphs" textLength="27" x="1124.55" y="686.2825">build()</text><ellipse cx="1116.45" cy="694.7578" fill="#84BE84" rx="2.7" ry="2.7" style="stroke: #038048; stroke-width: 0.9;"/><text fill="#000000" font-family="sans-serif" font-size="9.9" lengthAdjust="spacingAndGlyphs" textLength="93.6" x="1124.55" y="698.7349">powerMustBeReset()</text><ellipse cx="1116.45" cy="707.2102" fill="#84BE84" rx="2.7" ry="2.7" style="stroke: #038048; stroke-width: 0.9;"/><text fill="#000000" font-family="sans-serif" font-size="9.9" lengthAdjust="spacingAndGlyphs" textLength="58.5" x="1124.55" y="711.1872">resetPower()</text><!--MD5=[bab173cd8b91ab3f13748c03ec3bca8d]
class model.god.godspower.HeraPower--><rect fill="#FEFECE" filter="url(#f1vgwm1tlf8ab4)" height="55.6523" id="model.god.godspower.HeraPower" style="stroke: #A80036; stroke-width: 1.35;" width="84.6" x="1260" y="642.4031"/><ellipse cx="1273.5" cy="656.8031" fill="#ADD1B2" rx="9.9" ry="9.9" style="stroke: #A80036; stroke-width: 0.9;"/><path d="M1275.3,653.6531 Q1275.4828,653.2031 1275.6938,652.9781 Q1275.9047,652.7531 1276.1438,652.7531 Q1276.5656,652.7531 1276.8328,653.0063 Q1277.1,653.2594 1277.1,653.85 L1277.1,655.2563 Q1277.1,655.8469 1276.8469,656.1 Q1276.5938,656.3531 1276.2,656.3531 Q1275.8484,656.3531 1275.6234,656.1984 Q1275.3984,656.0438 1275.3,655.6359 Q1275.2578,655.3547 1275.1031,655.2 Q1274.8219,654.9047 1274.3156,654.7359 Q1273.8094,654.5531 1273.3031,654.5531 Q1272.6703,654.5531 1272.1359,654.8063 Q1271.6156,655.0594 1271.2078,655.6219 Q1270.8,656.1844 1270.8,656.9578 L1270.8,657.7875 Q1270.8,658.7156 1271.5594,659.3344 Q1272.3188,659.9531 1273.6688,659.9531 Q1274.4703,659.9531 1275.0328,659.7703 Q1275.3563,659.6719 1275.7219,659.3484 Q1275.9609,659.1656 1276.0875,659.1094 Q1276.2141,659.0531 1276.3688,659.0531 Q1276.6641,659.0531 1276.875,659.2922 Q1277.1,659.5172 1277.1,659.8406 Q1277.1,660.15 1276.7906,660.5156 Q1276.3406,661.05 1275.6234,661.3453 Q1274.6813,661.7531 1273.5281,661.7531 Q1272.1781,661.7531 1271.0953,661.2188 Q1270.2234,660.7969 1269.6047,659.8828 Q1269,658.9688 1269,657.8859 L1269,656.9016 Q1269,655.7766 1269.5344,654.7922 Q1270.0828,653.8078 1271.025,653.2875 Q1271.9813,652.7531 1273.05,652.7531 Q1273.6969,652.7531 1274.2594,652.9781 Q1274.8219,653.2031 1275.3,653.6531 Z "/><text fill="#000000" font-family="sans-serif" font-size="10.8" lengthAdjust="spacingAndGlyphs" textLength="55.8" x="1286.1" y="661.2223">HeraPower</text><line style="stroke: #A80036; stroke-width: 1.35;" x1="1260.9" x2="1343.7" y1="671.2031" y2="671.2031"/><line style="stroke: #A80036; stroke-width: 1.35;" x1="1260.9" x2="1343.7" y1="678.4031" y2="678.4031"/><ellipse cx="1269.9" cy="688.3031" fill="#84BE84" rx="2.7" ry="2.7" style="stroke: #038048; stroke-width: 0.9;"/><text fill="#000000" font-family="sans-serif" font-size="9.9" lengthAdjust="spacingAndGlyphs" textLength="56.7" x="1278" y="692.2802">HeraPower()</text><!--MD5=[79d2d4ebb165905a2ef416fb42959abf]
class model.god.godspower.HestiaPower--><rect fill="#FEFECE" filter="url(#f1vgwm1tlf8ab4)" height="117.9141" id="model.god.godspower.HestiaPower" style="stroke: #A80036; stroke-width: 1.35;" width="127.8" x="1376.1" y="611.3531"/><ellipse cx="1405.395" cy="625.7531" fill="#ADD1B2" rx="9.9" ry="9.9" style="stroke: #A80036; stroke-width: 0.9;"/><path d="M1407.195,622.6031 Q1407.3778,622.1531 1407.5888,621.9281 Q1407.7997,621.7031 1408.0388,621.7031 Q1408.4606,621.7031 1408.7278,621.9563 Q1408.995,622.2094 1408.995,622.8 L1408.995,624.2063 Q1408.995,624.7969 1408.7419,625.05 Q1408.4888,625.3031 1408.095,625.3031 Q1407.7434,625.3031 1407.5184,625.1484 Q1407.2934,624.9938 1407.195,624.5859 Q1407.1528,624.3047 1406.9981,624.15 Q1406.7169,623.8547 1406.2106,623.6859 Q1405.7044,623.5031 1405.1981,623.5031 Q1404.5653,623.5031 1404.0309,623.7563 Q1403.5106,624.0094 1403.1028,624.5719 Q1402.695,625.1344 1402.695,625.9078 L1402.695,626.7375 Q1402.695,627.6656 1403.4544,628.2844 Q1404.2138,628.9031 1405.5638,628.9031 Q1406.3653,628.9031 1406.9278,628.7203 Q1407.2513,628.6219 1407.6169,628.2984 Q1407.8559,628.1156 1407.9825,628.0594 Q1408.1091,628.0031 1408.2638,628.0031 Q1408.5591,628.0031 1408.77,628.2422 Q1408.995,628.4672 1408.995,628.7906 Q1408.995,629.1 1408.6856,629.4656 Q1408.2356,630 1407.5184,630.2953 Q1406.5763,630.7031 1405.4231,630.7031 Q1404.0731,630.7031 1402.9903,630.1688 Q1402.1184,629.7469 1401.4997,628.8328 Q1400.895,627.9188 1400.895,626.8359 L1400.895,625.8516 Q1400.895,624.7266 1401.4294,623.7422 Q1401.9778,622.7578 1402.92,622.2375 Q1403.8763,621.7031 1404.945,621.7031 Q1405.5919,621.7031 1406.1544,621.9281 Q1406.7169,622.1531 1407.195,622.6031 Z "/><text fill="#000000" font-family="sans-serif" font-size="10.8" lengthAdjust="spacingAndGlyphs" textLength="63.9" x="1421.505" y="630.1723">HestiaPower</text><line style="stroke: #A80036; stroke-width: 1.35;" x1="1377" x2="1503" y1="640.1531" y2="640.1531"/><rect fill="none" height="5.4" style="stroke: #C82930; stroke-width: 0.9;" width="5.4" x="1383.3" y="647.3531"/><text fill="#000000" font-family="sans-serif" font-size="9.9" lengthAdjust="spacingAndGlyphs" textLength="80.1" x="1394.1" y="654.0302">firstBuild : boolean</text><line style="stroke: #A80036; stroke-width: 1.35;" x1="1377" x2="1503" y1="659.8055" y2="659.8055"/><ellipse cx="1386" cy="669.7055" fill="#84BE84" rx="2.7" ry="2.7" style="stroke: #038048; stroke-width: 0.9;"/><text fill="#000000" font-family="sans-serif" font-size="9.9" lengthAdjust="spacingAndGlyphs" textLength="63" x="1394.1" y="673.6825">HestiaPower()</text><ellipse cx="1386" cy="682.1578" fill="#84BE84" rx="2.7" ry="2.7" style="stroke: #038048; stroke-width: 0.9;"/><text fill="#000000" font-family="sans-serif" font-size="9.9" lengthAdjust="spacingAndGlyphs" textLength="27" x="1394.1" y="686.1349">build()</text><ellipse cx="1386" cy="694.6102" fill="#84BE84" rx="2.7" ry="2.7" style="stroke: #038048; stroke-width: 0.9;"/><text fill="#000000" font-family="sans-serif" font-size="9.9" lengthAdjust="spacingAndGlyphs" textLength="93.6" x="1394.1" y="698.5872">powerMustBeReset()</text><ellipse cx="1386" cy="707.0625" fill="#84BE84" rx="2.7" ry="2.7" style="stroke: #038048; stroke-width: 0.9;"/><text fill="#000000" font-family="sans-serif" font-size="9.9" lengthAdjust="spacingAndGlyphs" textLength="58.5" x="1394.1" y="711.0396">resetPower()</text><rect fill="#F24D5C" height="5.4" style="stroke: #C82930; stroke-width: 0.9;" width="5.4" x="1383.3" y="716.8148"/><text fill="#000000" font-family="sans-serif" font-size="9.9" lengthAdjust="spacingAndGlyphs" textLength="104.4" x="1394.1" y="723.4919">hasNewBuildAvailable()</text><!--MD5=[3e0a1af272666640903c84c6519b3f6b]
class model.god.godspower.MinotaurPower--><rect fill="#FEFECE" filter="url(#f1vgwm1tlf8ab4)" height="80.557" id="model.god.godspower.MinotaurPower" style="stroke: #A80036; stroke-width: 1.35;" width="102.6" x="1535.4" y="629.8031"/><ellipse cx="1548.9" cy="644.2031" fill="#ADD1B2" rx="9.9" ry="9.9" style="stroke: #A80036; stroke-width: 0.9;"/><path d="M1550.7,641.0531 Q1550.8828,640.6031 1551.0938,640.3781 Q1551.3047,640.1531 1551.5438,640.1531 Q1551.9656,640.1531 1552.2328,640.4063 Q1552.5,640.6594 1552.5,641.25 L1552.5,642.6563 Q1552.5,643.2469 1552.2469,643.5 Q1551.9938,643.7531 1551.6,643.7531 Q1551.2484,643.7531 1551.0234,643.5984 Q1550.7984,643.4438 1550.7,643.0359 Q1550.6578,642.7547 1550.5031,642.6 Q1550.2219,642.3047 1549.7156,642.1359 Q1549.2094,641.9531 1548.7031,641.9531 Q1548.0703,641.9531 1547.5359,642.2063 Q1547.0156,642.4594 1546.6078,643.0219 Q1546.2,643.5844 1546.2,644.3578 L1546.2,645.1875 Q1546.2,646.1156 1546.9594,646.7344 Q1547.7188,647.3531 1549.0688,647.3531 Q1549.8703,647.3531 1550.4328,647.1703 Q1550.7563,647.0719 1551.1219,646.7484 Q1551.3609,646.5656 1551.4875,646.5094 Q1551.6141,646.4531 1551.7688,646.4531 Q1552.0641,646.4531 1552.275,646.6922 Q1552.5,646.9172 1552.5,647.2406 Q1552.5,647.55 1552.1906,647.9156 Q1551.7406,648.45 1551.0234,648.7453 Q1550.0813,649.1531 1548.9281,649.1531 Q1547.5781,649.1531 1546.4953,648.6188 Q1545.6234,648.1969 1545.0047,647.2828 Q1544.4,646.3688 1544.4,645.2859 L1544.4,644.3016 Q1544.4,643.1766 1544.9344,642.1922 Q1545.4828,641.2078 1546.425,640.6875 Q1547.3813,640.1531 1548.45,640.1531 Q1549.0969,640.1531 1549.6594,640.3781 Q1550.2219,640.6031 1550.7,641.0531 Z "/><text fill="#000000" font-family="sans-serif" font-size="10.8" lengthAdjust="spacingAndGlyphs" textLength="73.8" x="1561.5" y="648.6223">MinotaurPower</text><line style="stroke: #A80036; stroke-width: 1.35;" x1="1536.3" x2="1637.1" y1="658.6031" y2="658.6031"/><line style="stroke: #A80036; stroke-width: 1.35;" x1="1536.3" x2="1637.1" y1="665.8031" y2="665.8031"/><ellipse cx="1545.3" cy="675.7031" fill="#84BE84" rx="2.7" ry="2.7" style="stroke: #038048; stroke-width: 0.9;"/><text fill="#000000" font-family="sans-serif" font-size="9.9" lengthAdjust="spacingAndGlyphs" textLength="72.9" x="1553.4" y="679.6802">MinotaurPower()</text><ellipse cx="1545.3" cy="688.1555" fill="#84BE84" rx="2.7" ry="2.7" style="stroke: #038048; stroke-width: 0.9;"/><text fill="#000000" font-family="sans-serif" font-size="9.9" lengthAdjust="spacingAndGlyphs" textLength="70.2" x="1553.4" y="692.1325">isWorkerStuck()</text><ellipse cx="1545.3" cy="700.6078" fill="#84BE84" rx="2.7" ry="2.7" style="stroke: #038048; stroke-width: 0.9;"/><text fill="#000000" font-family="sans-serif" font-size="9.9" lengthAdjust="spacingAndGlyphs" textLength="30.6" x="1553.4" y="704.5849">move()</text><!--MD5=[3dfcd8a2907fa6070843b51f8c72ab63]
class model.god.godspower.PanPower--><rect fill="#FEFECE" filter="url(#f1vgwm1tlf8ab4)" height="68.1047" id="model.god.godspower.PanPower" style="stroke: #A80036; stroke-width: 1.35;" width="80.1" x="1669.95" y="636.1031"/><ellipse cx="1683.45" cy="650.5031" fill="#ADD1B2" rx="9.9" ry="9.9" style="stroke: #A80036; stroke-width: 0.9;"/><path d="M1685.25,647.3531 Q1685.4328,646.9031 1685.6438,646.6781 Q1685.8547,646.4531 1686.0938,646.4531 Q1686.5156,646.4531 1686.7828,646.7063 Q1687.05,646.9594 1687.05,647.55 L1687.05,648.9563 Q1687.05,649.5469 1686.7969,649.8 Q1686.5438,650.0531 1686.15,650.0531 Q1685.7984,650.0531 1685.5734,649.8984 Q1685.3484,649.7438 1685.25,649.3359 Q1685.2078,649.0547 1685.0531,648.9 Q1684.7719,648.6047 1684.2656,648.4359 Q1683.7594,648.2531 1683.2531,648.2531 Q1682.6203,648.2531 1682.0859,648.5063 Q1681.5656,648.7594 1681.1578,649.3219 Q1680.75,649.8844 1680.75,650.6578 L1680.75,651.4875 Q1680.75,652.4156 1681.5094,653.0344 Q1682.2688,653.6531 1683.6188,653.6531 Q1684.4203,653.6531 1684.9828,653.4703 Q1685.3063,653.3719 1685.6719,653.0484 Q1685.9109,652.8656 1686.0375,652.8094 Q1686.1641,652.7531 1686.3188,652.7531 Q1686.6141,652.7531 1686.825,652.9922 Q1687.05,653.2172 1687.05,653.5406 Q1687.05,653.85 1686.7406,654.2156 Q1686.2906,654.75 1685.5734,655.0453 Q1684.6313,655.4531 1683.4781,655.4531 Q1682.1281,655.4531 1681.0453,654.9188 Q1680.1734,654.4969 1679.5547,653.5828 Q1678.95,652.6688 1678.95,651.5859 L1678.95,650.6016 Q1678.95,649.4766 1679.4844,648.4922 Q1680.0328,647.5078 1680.975,646.9875 Q1681.9313,646.4531 1683,646.4531 Q1683.6469,646.4531 1684.2094,646.6781 Q1684.7719,646.9031 1685.25,647.3531 Z "/><text fill="#000000" font-family="sans-serif" font-size="10.8" lengthAdjust="spacingAndGlyphs" textLength="51.3" x="1696.05" y="654.9223">PanPower</text><line style="stroke: #A80036; stroke-width: 1.35;" x1="1670.85" x2="1749.15" y1="664.9031" y2="664.9031"/><line style="stroke: #A80036; stroke-width: 1.35;" x1="1670.85" x2="1749.15" y1="672.1031" y2="672.1031"/><ellipse cx="1679.85" cy="682.0031" fill="#84BE84" rx="2.7" ry="2.7" style="stroke: #038048; stroke-width: 0.9;"/><text fill="#000000" font-family="sans-serif" font-size="9.9" lengthAdjust="spacingAndGlyphs" textLength="52.2" x="1687.95" y="685.9802">PanPower()</text><ellipse cx="1679.85" cy="694.4555" fill="#84BE84" rx="2.7" ry="2.7" style="stroke: #038048; stroke-width: 0.9;"/><text fill="#000000" font-family="sans-serif" font-size="9.9" lengthAdjust="spacingAndGlyphs" textLength="30.6" x="1687.95" y="698.4325">move()</text><!--MD5=[76ba7f5ed65e0ca134a0d3d1818248d6]
class model.god.godspower.Power--><rect fill="#FEFECE" filter="url(#f1vgwm1tlf8ab4)" height="242.4375" id="model.god.godspower.Power" style="stroke: #A80036; stroke-width: 1.35;" width="181.8" x="1143.9" y="292.7531"/><ellipse cx="1215.675" cy="307.1531" fill="#A9DCDF" rx="9.9" ry="9.9" style="stroke: #A80036; stroke-width: 0.9;"/><path d="M1217.25,308.5031 L1214.2828,308.5031 L1213.8891,309.4031 L1213.8891,309.4031 L1214.3109,309.4031 L1214.775,309.9656 L1214.775,310.3031 L1214.775,310.6406 L1214.3109,311.2031 L1213.8891,311.2031 L1212.1875,311.2031 L1211.6391,311.2031 L1211.175,310.6406 L1211.175,310.3031 L1211.175,309.9656 L1211.6391,309.4031 L1212.1875,309.4031 L1214.2688,304.0031 L1213.4813,304.0031 L1212.5391,304.0031 L1212.075,303.4406 L1212.075,303.1031 L1212.075,302.7656 L1212.5391,302.2031 L1213.4813,302.2031 L1216.7859,302.2031 L1219.2047,309.4031 L1219.7109,309.4031 L1219.7109,309.4031 L1220.175,309.9656 L1220.175,310.3031 L1220.175,310.6406 L1219.7109,311.2031 L1219.2047,311.2031 L1217.5031,311.2031 L1217.0391,311.2031 L1216.575,310.6406 L1216.575,310.3031 L1216.575,309.9656 L1217.0391,309.4031 L1217.5031,309.4031 L1217.5031,309.4031 L1217.25,308.5031 Z M1216.7578,306.7031 L1215.675,303.4828 L1214.7469,306.7031 L1216.7578,306.7031 Z "/><text fill="#000000" font-family="sans-serif" font-size="10.8" font-style="italic" lengthAdjust="spacingAndGlyphs" textLength="30.6" x="1234.125" y="311.5723">Power</text><line style="stroke: #A80036; stroke-width: 1.35;" x1="1144.8" x2="1324.8" y1="321.5531" y2="321.5531"/><polygon fill="none" points="1153.8,326.9531,1157.4,330.5531,1153.8,334.1531,1150.2,330.5531" style="stroke: #B38D22; stroke-width: 0.9;"/><text fill="#000000" font-family="sans-serif" font-size="9.9" lengthAdjust="spacingAndGlyphs" textLength="110.7" x="1161.9" y="335.4302">powerDescription : String</text><line style="stroke: #A80036; stroke-width: 1.35;" x1="1144.8" x2="1324.8" y1="341.2055" y2="341.2055"/><ellipse cx="1153.8" cy="351.1055" fill="#84BE84" rx="2.7" ry="2.7" style="stroke: #038048; stroke-width: 0.9;"/><text fill="#000000" font-family="sans-serif" font-size="9.9" lengthAdjust="spacingAndGlyphs" textLength="27" x="1161.9" y="355.0825">build()</text><ellipse cx="1153.8" cy="363.5578" fill="#84BE84" rx="2.7" ry="2.7" style="stroke: #038048; stroke-width: 0.9;"/><text fill="#000000" font-family="sans-serif" font-size="9.9" lengthAdjust="spacingAndGlyphs" textLength="51.3" x="1161.9" y="367.5349">buildDome()</text><ellipse cx="1153.8" cy="376.0102" fill="#84BE84" rx="2.7" ry="2.7" style="stroke: #038048; stroke-width: 0.9;"/><text fill="#000000" font-family="sans-serif" font-size="9.9" lengthAdjust="spacingAndGlyphs" textLength="104.4" x="1161.9" y="379.9872">canBuildBeforeMoving()</text><ellipse cx="1153.8" cy="388.4625" fill="#84BE84" rx="2.7" ry="2.7" style="stroke: #038048; stroke-width: 0.9;"/><text fill="#000000" font-family="sans-serif" font-size="9.9" lengthAdjust="spacingAndGlyphs" textLength="119.7" x="1161.9" y="392.4396">canBuildDomeAtAnyLevel()</text><ellipse cx="1153.8" cy="400.9148" fill="#84BE84" rx="2.7" ry="2.7" style="stroke: #038048; stroke-width: 0.9;"/><text fill="#000000" font-family="sans-serif" font-size="9.9" lengthAdjust="spacingAndGlyphs" textLength="158.4" x="1161.9" y="404.8919">canPreventsFromPerformingAction()</text><ellipse cx="1153.8" cy="413.3672" fill="#84BE84" rx="2.7" ry="2.7" style="stroke: #038048; stroke-width: 0.9;"/><text fill="#000000" font-family="sans-serif" font-size="9.9" lengthAdjust="spacingAndGlyphs" textLength="132.3" x="1161.9" y="417.3442">canUsePowerBeforeBuilding()</text><ellipse cx="1153.8" cy="425.8195" fill="#84BE84" rx="2.7" ry="2.7" style="stroke: #038048; stroke-width: 0.9;"/><text fill="#000000" font-family="sans-serif" font-size="9.9" lengthAdjust="spacingAndGlyphs" textLength="129.6" x="1161.9" y="429.7966">canUsePowerBeforeMoving()</text><ellipse cx="1153.8" cy="438.2719" fill="#84BE84" rx="2.7" ry="2.7" style="stroke: #038048; stroke-width: 0.9;"/><text fill="#000000" font-family="sans-serif" font-size="9.9" lengthAdjust="spacingAndGlyphs" textLength="120.6" x="1161.9" y="442.2489">checkIfActionNotPermitted()</text><ellipse cx="1153.8" cy="450.7242" fill="#84BE84" rx="2.7" ry="2.7" style="stroke: #038048; stroke-width: 0.9;"/><text fill="#000000" font-family="sans-serif" font-size="9.9" lengthAdjust="spacingAndGlyphs" textLength="70.2" x="1161.9" y="454.7013">isWorkerStuck()</text><ellipse cx="1153.8" cy="463.1766" fill="#84BE84" rx="2.7" ry="2.7" style="stroke: #038048; stroke-width: 0.9;"/><text fill="#000000" font-family="sans-serif" font-size="9.9" lengthAdjust="spacingAndGlyphs" textLength="30.6" x="1161.9" y="467.1536">move()</text><ellipse cx="1153.8" cy="475.6289" fill="#84BE84" rx="2.7" ry="2.7" style="stroke: #038048; stroke-width: 0.9;"/><text fill="#000000" font-family="sans-serif" font-size="9.9" lengthAdjust="spacingAndGlyphs" textLength="93.6" x="1161.9" y="479.606">powerMustBeReset()</text><ellipse cx="1153.8" cy="488.0813" fill="#84BE84" rx="2.7" ry="2.7" style="stroke: #038048; stroke-width: 0.9;"/><text fill="#000000" font-family="sans-serif" font-size="9.9" lengthAdjust="spacingAndGlyphs" textLength="58.5" x="1161.9" y="492.0583">resetPower()</text><ellipse cx="1153.8" cy="500.5336" fill="#84BE84" rx="2.7" ry="2.7" style="stroke: #038048; stroke-width: 0.9;"/><text fill="#000000" font-family="sans-serif" font-size="9.9" lengthAdjust="spacingAndGlyphs" textLength="64.8" x="1161.9" y="504.5106">selectWorker()</text><ellipse cx="1153.8" cy="512.9859" fill="#84BE84" rx="2.7" ry="2.7" style="stroke: #038048; stroke-width: 0.9;"/><text fill="#000000" font-family="sans-serif" font-size="9.9" lengthAdjust="spacingAndGlyphs" textLength="71.1" x="1161.9" y="516.963">setBuildBefore()</text><polygon fill="#FFFF44" points="1153.8,520.9383,1157.4,524.5383,1153.8,528.1383,1150.2,524.5383" style="stroke: #B38D22; stroke-width: 0.9;"/><text fill="#000000" font-family="sans-serif" font-size="9.9" lengthAdjust="spacingAndGlyphs" textLength="107.1" x="1161.9" y="529.4153">athenaPowerActivated()</text><!--MD5=[7935b04c0d0cae4bc07f37b4821d14fe]
class model.god.godspower.PrometheusPower--><rect fill="#FEFECE" filter="url(#f1vgwm1tlf8ab4)" height="130.3664" id="model.god.godspower.PrometheusPower" style="stroke: #A80036; stroke-width: 1.35;" width="153" x="171" y="605.0531"/><ellipse cx="198.675" cy="619.4531" fill="#ADD1B2" rx="9.9" ry="9.9" style="stroke: #A80036; stroke-width: 0.9;"/><path d="M200.475,616.3031 Q200.6578,615.8531 200.8688,615.6281 Q201.0797,615.4031 201.3188,615.4031 Q201.7406,615.4031 202.0078,615.6563 Q202.275,615.9094 202.275,616.5 L202.275,617.9063 Q202.275,618.4969 202.0219,618.75 Q201.7688,619.0031 201.375,619.0031 Q201.0234,619.0031 200.7984,618.8484 Q200.5734,618.6938 200.475,618.2859 Q200.4328,618.0047 200.2781,617.85 Q199.9969,617.5547 199.4906,617.3859 Q198.9844,617.2031 198.4781,617.2031 Q197.8453,617.2031 197.3109,617.4563 Q196.7906,617.7094 196.3828,618.2719 Q195.975,618.8344 195.975,619.6078 L195.975,620.4375 Q195.975,621.3656 196.7344,621.9844 Q197.4938,622.6031 198.8438,622.6031 Q199.6453,622.6031 200.2078,622.4203 Q200.5313,622.3219 200.8969,621.9984 Q201.1359,621.8156 201.2625,621.7594 Q201.3891,621.7031 201.5438,621.7031 Q201.8391,621.7031 202.05,621.9422 Q202.275,622.1672 202.275,622.4906 Q202.275,622.8 201.9656,623.1656 Q201.5156,623.7 200.7984,623.9953 Q199.8563,624.4031 198.7031,624.4031 Q197.3531,624.4031 196.2703,623.8688 Q195.3984,623.4469 194.7797,622.5328 Q194.175,621.6188 194.175,620.5359 L194.175,619.5516 Q194.175,618.4266 194.7094,617.4422 Q195.2578,616.4578 196.2,615.9375 Q197.1563,615.4031 198.225,615.4031 Q198.8719,615.4031 199.4344,615.6281 Q199.9969,615.8531 200.475,616.3031 Z "/><text fill="#000000" font-family="sans-serif" font-size="10.8" lengthAdjust="spacingAndGlyphs" textLength="92.7" x="214.425" y="623.8723">PrometheusPower</text><line style="stroke: #A80036; stroke-width: 1.35;" x1="171.9" x2="323.1" y1="633.8531" y2="633.8531"/><rect fill="none" height="5.4" style="stroke: #C82930; stroke-width: 0.9;" width="5.4" x="178.2" y="641.0531"/><text fill="#000000" font-family="sans-serif" font-size="9.9" lengthAdjust="spacingAndGlyphs" textLength="91.8" x="189" y="647.7302">buildBefore : boolean</text><line style="stroke: #A80036; stroke-width: 1.35;" x1="171.9" x2="323.1" y1="653.5055" y2="653.5055"/><ellipse cx="180.9" cy="663.4055" fill="#84BE84" rx="2.7" ry="2.7" style="stroke: #038048; stroke-width: 0.9;"/><text fill="#000000" font-family="sans-serif" font-size="9.9" lengthAdjust="spacingAndGlyphs" textLength="87.3" x="189" y="667.3825">PrometheusPower()</text><ellipse cx="180.9" cy="675.8578" fill="#84BE84" rx="2.7" ry="2.7" style="stroke: #038048; stroke-width: 0.9;"/><text fill="#000000" font-family="sans-serif" font-size="9.9" lengthAdjust="spacingAndGlyphs" textLength="27" x="189" y="679.8349">build()</text><ellipse cx="180.9" cy="688.3102" fill="#84BE84" rx="2.7" ry="2.7" style="stroke: #038048; stroke-width: 0.9;"/><text fill="#000000" font-family="sans-serif" font-size="9.9" lengthAdjust="spacingAndGlyphs" textLength="104.4" x="189" y="692.2872">canBuildBeforeMoving()</text><ellipse cx="180.9" cy="700.7625" fill="#84BE84" rx="2.7" ry="2.7" style="stroke: #038048; stroke-width: 0.9;"/><text fill="#000000" font-family="sans-serif" font-size="9.9" lengthAdjust="spacingAndGlyphs" textLength="129.6" x="189" y="704.7396">canUsePowerBeforeMoving()</text><ellipse cx="180.9" cy="713.2148" fill="#84BE84" rx="2.7" ry="2.7" style="stroke: #038048; stroke-width: 0.9;"/><text fill="#000000" font-family="sans-serif" font-size="9.9" lengthAdjust="spacingAndGlyphs" textLength="30.6" x="189" y="717.1919">move()</text><ellipse cx="180.9" cy="725.6672" fill="#84BE84" rx="2.7" ry="2.7" style="stroke: #038048; stroke-width: 0.9;"/><text fill="#000000" font-family="sans-serif" font-size="9.9" lengthAdjust="spacingAndGlyphs" textLength="71.1" x="189" y="729.6442">setBuildBefore()</text><!--MD5=[2f3b192053302b36566698bc1266f045]
class model.god.godspower.TritonPower--><rect fill="#FEFECE" filter="url(#f1vgwm1tlf8ab4)" height="68.1047" id="model.god.godspower.TritonPower" style="stroke: #A80036; stroke-width: 1.35;" width="88.2" x="1782" y="636.1031"/><ellipse cx="1795.5" cy="650.5031" fill="#ADD1B2" rx="9.9" ry="9.9" style="stroke: #A80036; stroke-width: 0.9;"/><path d="M1797.3,647.3531 Q1797.4828,646.9031 1797.6938,646.6781 Q1797.9047,646.4531 1798.1438,646.4531 Q1798.5656,646.4531 1798.8328,646.7063 Q1799.1,646.9594 1799.1,647.55 L1799.1,648.9563 Q1799.1,649.5469 1798.8469,649.8 Q1798.5938,650.0531 1798.2,650.0531 Q1797.8484,650.0531 1797.6234,649.8984 Q1797.3984,649.7438 1797.3,649.3359 Q1797.2578,649.0547 1797.1031,648.9 Q1796.8219,648.6047 1796.3156,648.4359 Q1795.8094,648.2531 1795.3031,648.2531 Q1794.6703,648.2531 1794.1359,648.5063 Q1793.6156,648.7594 1793.2078,649.3219 Q1792.8,649.8844 1792.8,650.6578 L1792.8,651.4875 Q1792.8,652.4156 1793.5594,653.0344 Q1794.3188,653.6531 1795.6688,653.6531 Q1796.4703,653.6531 1797.0328,653.4703 Q1797.3563,653.3719 1797.7219,653.0484 Q1797.9609,652.8656 1798.0875,652.8094 Q1798.2141,652.7531 1798.3688,652.7531 Q1798.6641,652.7531 1798.875,652.9922 Q1799.1,653.2172 1799.1,653.5406 Q1799.1,653.85 1798.7906,654.2156 Q1798.3406,654.75 1797.6234,655.0453 Q1796.6813,655.4531 1795.5281,655.4531 Q1794.1781,655.4531 1793.0953,654.9188 Q1792.2234,654.4969 1791.6047,653.5828 Q1791,652.6688 1791,651.5859 L1791,650.6016 Q1791,649.4766 1791.5344,648.4922 Q1792.0828,647.5078 1793.025,646.9875 Q1793.9813,646.4531 1795.05,646.4531 Q1795.6969,646.4531 1796.2594,646.6781 Q1796.8219,646.9031 1797.3,647.3531 Z "/><text fill="#000000" font-family="sans-serif" font-size="10.8" lengthAdjust="spacingAndGlyphs" textLength="59.4" x="1808.1" y="654.9223">TritonPower</text><line style="stroke: #A80036; stroke-width: 1.35;" x1="1782.9" x2="1869.3" y1="664.9031" y2="664.9031"/><line style="stroke: #A80036; stroke-width: 1.35;" x1="1782.9" x2="1869.3" y1="672.1031" y2="672.1031"/><ellipse cx="1791.9" cy="682.0031" fill="#84BE84" rx="2.7" ry="2.7" style="stroke: #038048; stroke-width: 0.9;"/><text fill="#000000" font-family="sans-serif" font-size="9.9" lengthAdjust="spacingAndGlyphs" textLength="60.3" x="1800" y="685.9802">TritonPower()</text><ellipse cx="1791.9" cy="694.4555" fill="#84BE84" rx="2.7" ry="2.7" style="stroke: #038048; stroke-width: 0.9;"/><text fill="#000000" font-family="sans-serif" font-size="9.9" lengthAdjust="spacingAndGlyphs" textLength="30.6" x="1800" y="698.4325">move()</text><!--MD5=[d6ef2db46f9b5e7400343bd687af886c]
class model.god.godspower.ZeusPower--><rect fill="#FEFECE" filter="url(#f1vgwm1tlf8ab4)" height="80.557" id="model.god.godspower.ZeusPower" style="stroke: #A80036; stroke-width: 1.35;" width="85.5" x="652.95" y="629.8031"/><ellipse cx="666.45" cy="644.2031" fill="#ADD1B2" rx="9.9" ry="9.9" style="stroke: #A80036; stroke-width: 0.9;"/><path d="M668.25,641.0531 Q668.4328,640.6031 668.6438,640.3781 Q668.8547,640.1531 669.0938,640.1531 Q669.5156,640.1531 669.7828,640.4063 Q670.05,640.6594 670.05,641.25 L670.05,642.6563 Q670.05,643.2469 669.7969,643.5 Q669.5438,643.7531 669.15,643.7531 Q668.7984,643.7531 668.5734,643.5984 Q668.3484,643.4438 668.25,643.0359 Q668.2078,642.7547 668.0531,642.6 Q667.7719,642.3047 667.2656,642.1359 Q666.7594,641.9531 666.2531,641.9531 Q665.6203,641.9531 665.0859,642.2063 Q664.5656,642.4594 664.1578,643.0219 Q663.75,643.5844 663.75,644.3578 L663.75,645.1875 Q663.75,646.1156 664.5094,646.7344 Q665.2688,647.3531 666.6188,647.3531 Q667.4203,647.3531 667.9828,647.1703 Q668.3063,647.0719 668.6719,646.7484 Q668.9109,646.5656 669.0375,646.5094 Q669.1641,646.4531 669.3188,646.4531 Q669.6141,646.4531 669.825,646.6922 Q670.05,646.9172 670.05,647.2406 Q670.05,647.55 669.7406,647.9156 Q669.2906,648.45 668.5734,648.7453 Q667.6313,649.1531 666.4781,649.1531 Q665.1281,649.1531 664.0453,648.6188 Q663.1734,648.1969 662.5547,647.2828 Q661.95,646.3688 661.95,645.2859 L661.95,644.3016 Q661.95,643.1766 662.4844,642.1922 Q663.0328,641.2078 663.975,640.6875 Q664.9313,640.1531 666,640.1531 Q666.6469,640.1531 667.2094,640.3781 Q667.7719,640.6031 668.25,641.0531 Z "/><text fill="#000000" font-family="sans-serif" font-size="10.8" lengthAdjust="spacingAndGlyphs" textLength="56.7" x="679.05" y="648.6223">ZeusPower</text><line style="stroke: #A80036; stroke-width: 1.35;" x1="653.85" x2="737.55" y1="658.6031" y2="658.6031"/><line style="stroke: #A80036; stroke-width: 1.35;" x1="653.85" x2="737.55" y1="665.8031" y2="665.8031"/><ellipse cx="662.85" cy="675.7031" fill="#84BE84" rx="2.7" ry="2.7" style="stroke: #038048; stroke-width: 0.9;"/><text fill="#000000" font-family="sans-serif" font-size="9.9" lengthAdjust="spacingAndGlyphs" textLength="58.5" x="670.95" y="679.6802">ZeusPower()</text><ellipse cx="662.85" cy="688.1555" fill="#84BE84" rx="2.7" ry="2.7" style="stroke: #038048; stroke-width: 0.9;"/><text fill="#000000" font-family="sans-serif" font-size="9.9" lengthAdjust="spacingAndGlyphs" textLength="27" x="670.95" y="692.1325">build()</text><ellipse cx="662.85" cy="700.6078" fill="#84BE84" rx="2.7" ry="2.7" style="stroke: #038048; stroke-width: 0.9;"/><text fill="#000000" font-family="sans-serif" font-size="9.9" lengthAdjust="spacingAndGlyphs" textLength="30.6" x="670.95" y="704.5849">move()</text><!--MD5=[5a5af9b0547913863cbe0ddf55a9ab5e]
class java.io.Serializable--><rect fill="#FEFECE" filter="url(#f1vgwm1tlf8ab4)" height="43.2" id="java.io.Serializable" style="stroke: #A80036; stroke-width: 1.35;" width="86.4" x="34.2" y="144.7031"/><ellipse cx="47.7" cy="159.1031" fill="#ADD1B2" rx="9.9" ry="9.9" style="stroke: #A80036; stroke-width: 0.9;"/><path d="M49.5,155.9531 Q49.6828,155.5031 49.8938,155.2781 Q50.1047,155.0531 50.3438,155.0531 Q50.7656,155.0531 51.0328,155.3063 Q51.3,155.5594 51.3,156.15 L51.3,157.5563 Q51.3,158.1469 51.0469,158.4 Q50.7938,158.6531 50.4,158.6531 Q50.0484,158.6531 49.8234,158.4984 Q49.5984,158.3438 49.5,157.9359 Q49.4578,157.6547 49.3031,157.5 Q49.0219,157.2047 48.5156,157.0359 Q48.0094,156.8531 47.5031,156.8531 Q46.8703,156.8531 46.3359,157.1063 Q45.8156,157.3594 45.4078,157.9219 Q45,158.4844 45,159.2578 L45,160.0875 Q45,161.0156 45.7594,161.6344 Q46.5188,162.2531 47.8688,162.2531 Q48.6703,162.2531 49.2328,162.0703 Q49.5563,161.9719 49.9219,161.6484 Q50.1609,161.4656 50.2875,161.4094 Q50.4141,161.3531 50.5688,161.3531 Q50.8641,161.3531 51.075,161.5922 Q51.3,161.8172 51.3,162.1406 Q51.3,162.45 50.9906,162.8156 Q50.5406,163.35 49.8234,163.6453 Q48.8813,164.0531 47.7281,164.0531 Q46.3781,164.0531 45.2953,163.5188 Q44.4234,163.0969 43.8047,162.1828 Q43.2,161.2688 43.2,160.1859 L43.2,159.2016 Q43.2,158.0766 43.7344,157.0922 Q44.2828,156.1078 45.225,155.5875 Q46.1813,155.0531 47.25,155.0531 Q47.8969,155.0531 48.4594,155.2781 Q49.0219,155.5031 49.5,155.9531 Z "/><text fill="#000000" font-family="sans-serif" font-size="10.8" lengthAdjust="spacingAndGlyphs" textLength="57.6" x="60.3" y="163.5223">Serializable</text><line style="stroke: #A80036; stroke-width: 1.35;" x1="35.1" x2="119.7" y1="173.5031" y2="173.5031"/><line style="stroke: #A80036; stroke-width: 1.35;" x1="35.1" x2="119.7" y1="180.7031" y2="180.7031"/><!--MD5=[5ead43cccf0932ad080f462474c755ef]
class model.god.PowerType--><rect fill="#FEFECE" filter="url(#f1vgwm1tlf8ab4)" height="43.2" id="model.god.PowerType" style="stroke: #A80036; stroke-width: 1.35;" width="83.7" x="2259.45" y="648.7031"/><ellipse cx="2272.95" cy="663.1031" fill="#ADD1B2" rx="9.9" ry="9.9" style="stroke: #A80036; stroke-width: 0.9;"/><path d="M2274.75,659.9531 Q2274.9328,659.5031 2275.1438,659.2781 Q2275.3547,659.0531 2275.5938,659.0531 Q2276.0156,659.0531 2276.2828,659.3063 Q2276.55,659.5594 2276.55,660.15 L2276.55,661.5563 Q2276.55,662.1469 2276.2969,662.4 Q2276.0438,662.6531 2275.65,662.6531 Q2275.2984,662.6531 2275.0734,662.4984 Q2274.8484,662.3438 2274.75,661.9359 Q2274.7078,661.6547 2274.5531,661.5 Q2274.2719,661.2047 2273.7656,661.0359 Q2273.2594,660.8531 2272.7531,660.8531 Q2272.1203,660.8531 2271.5859,661.1063 Q2271.0656,661.3594 2270.6578,661.9219 Q2270.25,662.4844 2270.25,663.2578 L2270.25,664.0875 Q2270.25,665.0156 2271.0094,665.6344 Q2271.7688,666.2531 2273.1188,666.2531 Q2273.9203,666.2531 2274.4828,666.0703 Q2274.8063,665.9719 2275.1719,665.6484 Q2275.4109,665.4656 2275.5375,665.4094 Q2275.6641,665.3531 2275.8188,665.3531 Q2276.1141,665.3531 2276.325,665.5922 Q2276.55,665.8172 2276.55,666.1406 Q2276.55,666.45 2276.2406,666.8156 Q2275.7906,667.35 2275.0734,667.6453 Q2274.1313,668.0531 2272.9781,668.0531 Q2271.6281,668.0531 2270.5453,667.5188 Q2269.6734,667.0969 2269.0547,666.1828 Q2268.45,665.2688 2268.45,664.1859 L2268.45,663.2016 Q2268.45,662.0766 2268.9844,661.0922 Q2269.5328,660.1078 2270.475,659.5875 Q2271.4313,659.0531 2272.5,659.0531 Q2273.1469,659.0531 2273.7094,659.2781 Q2274.2719,659.5031 2274.75,659.9531 Z "/><text fill="#000000" font-family="sans-serif" font-size="10.8" lengthAdjust="spacingAndGlyphs" textLength="54.9" x="2285.55" y="667.5223">PowerType</text><line style="stroke: #A80036; stroke-width: 1.35;" x1="2260.35" x2="2342.25" y1="677.5031" y2="677.5031"/><line style="stroke: #A80036; stroke-width: 1.35;" x1="2260.35" x2="2342.25" y1="684.7031" y2="684.7031"/><!--MD5=[da038419338532828a755a0eeb47a55c]
reverse link model.god.godspower.Power to model.god.godspower.ApolloPower--><path d="M1343.826,428.9681 C1479.15,450.4691 1713.195,500.3561 1886.4,605.0531 C1897.299,611.6411 1907.586,620.6051 1916.532,629.7581 " fill="none" id="model.god.godspower.Power&lt;-model.god.godspower.ApolloPower" style="stroke: #A80036; stroke-width: 0.9;"/><polygon fill="none" points="1342.638,435.1601,1325.808,426.1781,1344.564,422.7041,1342.638,435.1601" style="stroke: #A80036; stroke-width: 0.9;"/><!--MD5=[cc42a9059f835d4df571c87605dbc9be]
reverse link java.io.Serializable to model.god.godspower.ArtemisPower--><path d="M109.314,201.8261 C131.391,226.4321 160.929,260.6681 184.5,292.7531 C266.238,404.0021 349.236,543.5291 391.878,617.5991 " fill="none" id="java.io.Serializable&lt;-model.god.godspower.ArtemisPower" style="stroke: #A80036; stroke-width: 0.9; stroke-dasharray: 7.0,7.0;"/><polygon fill="none" points="104.382,205.7591,96.957,188.1911,113.715,197.2991,104.382,205.7591" style="stroke: #A80036; stroke-width: 0.9;"/><!--MD5=[199d1e5200c8d2f39c42418bdf931bdb]
reverse link model.god.godspower.Power to model.god.godspower.ArtemisPower--><path d="M1126.224,438.2831 C1014.948,463.7801 837.693,508.0601 689.4,561.8531 C673.245,567.7121 670.689,572.9051 654.3,578.0531 C588.789,598.6091 564.795,576.8381 502.2,605.0531 C494.586,608.4821 487.062,612.7931 479.853,617.5451 " fill="none" id="model.god.godspower.Power&lt;-model.god.godspower.ArtemisPower" style="stroke: #A80036; stroke-width: 0.9;"/><polygon fill="none" points="1124.892,432.1271,1143.837,434.2781,1127.682,444.4121,1124.892,432.1271" style="stroke: #A80036; stroke-width: 0.9;"/><!--MD5=[fce36ba7793a27489be293f3c95b8508]
reverse link model.god.godspower.Power to model.god.godspower.AthenaPower--><path d="M1343.628,430.6241 C1496.916,455.4281 1783.197,510.5261 2011.5,605.0531 C2016.477,607.1141 2021.499,609.3911 2026.503,611.8121 " fill="none" id="model.god.godspower.Power&lt;-model.god.godspower.AthenaPower" style="stroke: #A80036; stroke-width: 0.9;"/><polygon fill="none" points="1342.611,436.8431,1325.835,427.7891,1344.6,424.4051,1342.611,436.8431" style="stroke: #A80036; stroke-width: 0.9;"/><!--MD5=[01c4810fa5fb0d491c1479470dadb59a]
reverse link model.god.godspower.Power to model.god.godspower.AtlasPower--><path d="M1128.573,483.0761 C1072.917,519.0851 1003.725,564.1571 942.3,605.0531 C933.21,611.1011 923.67,617.5271 914.283,623.8721 " fill="none" id="model.god.godspower.Power&lt;-model.god.godspower.AtlasPower" style="stroke: #A80036; stroke-width: 0.9;"/><polygon fill="none" points="1125.36,477.6491,1143.891,473.1671,1132.2,488.2331,1125.36,477.6491" style="stroke: #A80036; stroke-width: 0.9;"/><!--MD5=[7850617a2fc255cce15f680bd0546b9c]
reverse link java.io.Serializable to model.god.godspower.ChronusPower--><path d="M110.061,200.7371 C123.642,213.4631 140.076,227.3861 156.6,237.8531 C209.448,271.3241 236.907,254.2421 286.2,292.7531 C418.095,395.7851 520.182,574.5611 555.912,642.3131 " fill="none" id="java.io.Serializable&lt;-model.god.godspower.ChronusPower" style="stroke: #A80036; stroke-width: 0.9; stroke-dasharray: 7.0,7.0;"/><polygon fill="none" points="105.579,205.1651,97.056,188.1101,114.363,196.1291,105.579,205.1651" style="stroke: #A80036; stroke-width: 0.9;"/><!--MD5=[ab3cad47c8a6a2b1558af3b4b9416274]
reverse link model.god.godspower.Power to model.god.godspower.ChronusPower--><path d="M1125.936,433.9361 C1001.25,459.3431 794.007,512.1371 637.2,605.0531 C620.622,614.8721 604.872,629.4701 592.767,642.2771 " fill="none" id="model.god.godspower.Power&lt;-model.god.godspower.ChronusPower" style="stroke: #A80036; stroke-width: 0.9;"/><polygon fill="none" points="1124.829,427.7351,1143.72,430.3811,1127.304,440.0831,1124.829,427.7351" style="stroke: #A80036; stroke-width: 0.9;"/><!--MD5=[cc9772c89a19eac4d6357f0e45e4e832]
reverse link model.god.godspower.Power to model.god.godspower.DemeterPower--><path d="M1131.642,534.8441 C1104.489,566.4701 1076.832,598.6811 1055.385,623.6561 " fill="none" id="model.god.godspower.Power&lt;-model.god.godspower.DemeterPower" style="stroke: #A80036; stroke-width: 0.9;"/><polygon fill="none" points="1127.133,530.4251,1143.639,520.8761,1136.691,538.6331,1127.133,530.4251" style="stroke: #A80036; stroke-width: 0.9;"/><!--MD5=[9ca2665c360e873004f6eeb3ff383f34]
reverse link model.god.godspower.Power to model.god.godspower.HephaestusPower--><path d="M1198.296,552.4301 C1191.456,578.2601 1184.76,603.5141 1179.36,623.9081 " fill="none" id="model.god.godspower.Power&lt;-model.god.godspower.HephaestusPower" style="stroke: #A80036; stroke-width: 0.9;"/><polygon fill="none" points="1192.23,550.7561,1202.931,534.9701,1204.407,553.9781,1192.23,550.7561" style="stroke: #A80036; stroke-width: 0.9;"/><!--MD5=[3dc0c341afdbdf405d211da6892e0f6d]
reverse link model.god.godspower.Power to model.god.godspower.HeraPower--><path d="M1271.295,552.4031 C1280.385,586.7291 1289.214,620.0381 1295.109,642.2861 " fill="none" id="model.god.godspower.Power&lt;-model.god.godspower.HeraPower" style="stroke: #A80036; stroke-width: 0.9;"/><polygon fill="none" points="1265.193,553.9781,1266.669,534.9701,1277.37,550.7561,1265.193,553.9781" style="stroke: #A80036; stroke-width: 0.9;"/><!--MD5=[29c80a8683f49860ce1c7e194bffe9c7]
reverse link model.god.godspower.Power to model.god.godspower.HestiaPower--><path d="M1337.472,542.1431 C1357.002,566.3801 1376.514,590.6081 1393.209,611.3261 " fill="none" id="model.god.godspower.Power&lt;-model.god.godspower.HestiaPower" style="stroke: #A80036; stroke-width: 0.9;"/><polygon fill="none" points="1332.387,545.8691,1325.997,527.9051,1342.197,537.9671,1332.387,545.8691" style="stroke: #A80036; stroke-width: 0.9;"/><!--MD5=[396407c2d4d19b418043903d09c76835]
reverse link model.god.godspower.Power to model.god.godspower.MinotaurPower--><path d="M1341.297,479.2961 C1396.35,514.2791 1463.643,559.5581 1520.1,605.0531 C1529.487,612.6221 1539.09,621.2711 1547.982,629.7311 " fill="none" id="model.god.godspower.Power&lt;-model.god.godspower.MinotaurPower" style="stroke: #A80036; stroke-width: 0.9;"/><polygon fill="none" points="1337.607,484.4171,1325.745,469.4861,1344.33,473.7611,1337.607,484.4171" style="stroke: #A80036; stroke-width: 0.9;"/><!--MD5=[4c189cbd70c707af8fc95bdc35bcda23]
reverse link model.god.godspower.Power to model.god.godspower.PanPower--><path d="M1342.926,449.1731 C1431.945,480.8351 1558.584,533.6741 1654.2,605.0531 C1665.81,613.7201 1676.709,625.1861 1685.745,636.0311 " fill="none" id="model.god.godspower.Power&lt;-model.god.godspower.PanPower" style="stroke: #A80036; stroke-width: 0.9;"/><polygon fill="none" points="1340.838,455.1131,1325.925,443.2241,1344.996,443.2241,1340.838,455.1131" style="stroke: #A80036; stroke-width: 0.9;"/><!--MD5=[48a53dc7214c790737654e3d6935830f]
reverse link model.god.godspower.GodsChecker to model.god.godspower.Power--><path d="M1234.8,256.1501 C1234.8,268.0211 1234.8,280.3511 1234.8,292.6451 " fill="none" id="model.god.godspower.GodsChecker&lt;-model.god.godspower.Power" style="stroke: #A80036; stroke-width: 0.9; stroke-dasharray: 7.0,7.0;"/><polygon fill="none" points="1228.5,255.9431,1234.8,237.9431,1241.1,255.9431,1228.5,255.9431" style="stroke: #A80036; stroke-width: 0.9;"/><!--MD5=[f0ccd876b4ee84c070544890e16d0c56]
reverse link java.io.Serializable to model.god.godspower.Power--><path d="M106.11,201.4121 C119.844,215.2901 137.457,229.8971 156.6,237.8531 C250.407,276.8231 512.406,250.0301 612.9,264.8531 C804.357,293.0861 1023.534,351.5501 1143.837,385.9571 " fill="none" id="java.io.Serializable&lt;-model.god.godspower.Power" style="stroke: #A80036; stroke-width: 0.9; stroke-dasharray: 7.0,7.0;"/><polygon fill="none" points="101.358,205.5521,93.762,188.0561,110.61,197.0021,101.358,205.5521" style="stroke: #A80036; stroke-width: 0.9;"/><!--MD5=[2bbde45df7cfc7b7ee5ec10ac21dc134]
reverse link model.god.godspower.Power to model.god.PowerType--><path d="M1337.841,417.9791 C1523.403,427.4021 1922.409,463.8701 2223,605.0531 C2245.455,615.6011 2266.929,634.0511 2281.689,648.4961 " fill="none" id="model.god.godspower.Power&lt;-model.god.PowerType" style="stroke: #A80036; stroke-width: 0.9;"/><polygon fill="#FFFFFF" points="1325.934,417.4031,1331.1536,421.26,1336.7214,417.9253,1331.5017,414.0684,1325.934,417.4031" style="stroke: #A80036; stroke-width: 0.9;"/><text fill="#000000" font-family="sans-serif" font-size="11.7" lengthAdjust="spacingAndGlyphs" textLength="55.8" x="2149.2" y="574.8987">powerType</text><!--MD5=[9764bfa3169b8a6512451ad27fe97e9b]
reverse link java.io.Serializable to model.god.godspower.PrometheusPower--><path d="M90.324,205.3541 C119.295,290.9081 189.729,498.8531 225.648,604.9001 " fill="none" id="java.io.Serializable&lt;-model.god.godspower.PrometheusPower" style="stroke: #A80036; stroke-width: 0.9; stroke-dasharray: 7.0,7.0;"/><polygon fill="none" points="84.303,207.2081,84.492,188.1461,96.237,203.1671,84.303,207.2081" style="stroke: #A80036; stroke-width: 0.9;"/><!--MD5=[9564d077d2abc380a6df7ab8a1d073bc]
reverse link model.god.godspower.Power to model.god.godspower.PrometheusPower--><path d="M1125.657,423.9101 C952.803,441.5321 608.211,489.1331 340.2,605.0531 C334.809,607.3841 329.4,610.0571 324.063,612.9551 " fill="none" id="model.god.godspower.Power&lt;-model.god.godspower.PrometheusPower" style="stroke: #A80036; stroke-width: 0.9;"/><polygon fill="none" points="1125.063,417.6371,1143.603,422.1281,1126.314,430.1741,1125.063,417.6371" style="stroke: #A80036; stroke-width: 0.9;"/><!--MD5=[bb837f347193c1a0b92af084aef56c29]
reverse link model.god.godspower.Power to model.god.godspower.TritonPower--><path d="M1343.547,437.6711 C1455.966,464.9321 1633.257,518.0141 1765.8,605.0531 C1778.472,613.3691 1790.361,624.8801 1800.171,635.8691 " fill="none" id="model.god.godspower.Power&lt;-model.god.godspower.TritonPower" style="stroke: #A80036; stroke-width: 0.9;"/><polygon fill="none" points="1341.792,443.7281,1325.736,433.4321,1344.708,431.4701,1341.792,443.7281" style="stroke: #A80036; stroke-width: 0.9;"/><!--MD5=[97d4ed564756ab69d25bd51c752264fd]
reverse link java.io.Serializable to model.god.godspower.ZeusPower--><path d="M108,201.3041 C121.644,214.5701 138.681,228.7451 156.6,237.8531 C260.19,290.4761 314.289,230.1941 412.2,292.7531 C546.516,378.5771 640.539,551.8001 677.844,629.7761 " fill="none" id="java.io.Serializable&lt;-model.god.godspower.ZeusPower" style="stroke: #A80036; stroke-width: 0.9; stroke-dasharray: 7.0,7.0;"/><polygon fill="none" points="103.149,205.3451,95.112,188.0471,112.176,196.5611,103.149,205.3451" style="stroke: #A80036; stroke-width: 0.9;"/><!--MD5=[63611bc5f836cd93edfbe743c7cd991b]
reverse link model.god.godspower.Power to model.god.godspower.ZeusPower--><path d="M1126.287,442.2611 C1024.119,471.6371 869.904,525.0341 754.2,605.0531 C744.264,611.9201 734.823,620.7851 726.543,629.7221 " fill="none" id="model.god.godspower.Power&lt;-model.god.godspower.ZeusPower" style="stroke: #A80036; stroke-width: 0.9;"/><polygon fill="none" points="1124.766,436.1501,1143.801,437.3201,1128.186,448.2731,1124.766,436.1501" style="stroke: #A80036; stroke-width: 0.9;"/><text fill="#888888" font-family="sans-serif" font-size="9" lengthAdjust="spacingAndGlyphs" textLength="0" x="2388.6" y="782.6959"/><text fill="#888888" font-family="sans-serif" font-size="9" lengthAdjust="spacingAndGlyphs" textLength="0" x="2388.6" y="794.0162"/><text fill="#888888" font-family="sans-serif" font-size="9" lengthAdjust="spacingAndGlyphs" textLength="352.8" x="2035.8" y="805.3365">PlantUML diagram generated by SketchIt! (https://bitbucket.org/pmesmeur/sketch.it)</text><text fill="#888888" font-family="sans-serif" font-size="9" lengthAdjust="spacingAndGlyphs" textLength="354.6" x="2034" y="816.6568">For more information about this tool, please contact philippe.mesmeur@gmail.com</text><!--MD5=[c5cbbb1e2f8fe3b7e2c82c38b92c5126]
@startuml

title __GODSPOWER Class Diagram__\n





            class model.god.godspower.ApolloPower {
                + ApolloPower()
                + isWorkerStuck()
                + move()
            }




  




            class model.god.godspower.ArtemisPower {
                + ArtemisPower()
                + move()
                + powerMustBeReset()
                + resetPower()
                - hasNewMoveAvailable()
            }



  


            class model.god.godspower.AthenaPower {
                - goneUp : boolean
                + AthenaPower()
                + canPreventsFromPerformingAction()
                + checkIfActionNotPermitted()
                + hasGoneUp()
                + move()
            }



  




            class model.god.godspower.AtlasPower {
                + AtlasPower()
                + buildDome()
                + canBuildDomeAtAnyLevel()
                + canUsePowerBeforeBuilding()
            }



  




            class model.god.godspower.ChronusPower {
                + ChronusPower()
            }



  



            class model.god.godspower.DemeterPower {
                + DemeterPower()
                + build()
                + powerMustBeReset()
                + resetPower()
            }



  




            interface model.god.godspower.GodsChecker {
                {abstract} + canBuildBeforeMoving()
                {abstract} + canBuildDomeAtAnyLevel()
                {abstract} + canPreventsFromPerformingAction()
                {abstract} + canUsePowerBeforeBuilding()
                {abstract} + canUsePowerBeforeMoving()
                {abstract} + checkIfActionNotPermitted()
                {abstract} + resetPower()
                {abstract} + setBuildBefore()
            }



  





            class model.god.godspower.HephaestusPower {
                + HephaestusPower()
                + build()
                + powerMustBeReset()
                + resetPower()
            }



  




            class model.god.godspower.HeraPower {
                + HeraPower()
            }



  



            class model.god.godspower.HestiaPower {
                - firstBuild : boolean
                + HestiaPower()
                + build()
                + powerMustBeReset()
                + resetPower()
                - hasNewBuildAvailable()
            }






            class model.god.godspower.MinotaurPower {
                + MinotaurPower()
                + isWorkerStuck()
                + move()
            }



  




            class model.god.godspower.PanPower {
                + PanPower()
                + move()
            }



  




            abstract class model.god.godspower.Power {
                # powerDescription : String
                + build()
                + buildDome()
                + canBuildBeforeMoving()
                + canBuildDomeAtAnyLevel()
                + canPreventsFromPerformingAction()
                + canUsePowerBeforeBuilding()
                + canUsePowerBeforeMoving()
                + checkIfActionNotPermitted()
                + isWorkerStuck()
                + move()
                + powerMustBeReset()
                + resetPower()
                + selectWorker()
                + setBuildBefore()
                # athenaPowerActivated()

            }



  




            class model.god.godspower.PrometheusPower {
                - buildBefore : boolean
                + PrometheusPower()
                + build()
                + canBuildBeforeMoving()
                + canUsePowerBeforeMoving()
                + move()
                + setBuildBefore()
            }







            class model.god.godspower.TritonPower {
                + TritonPower()
                + move()
            }



  



            class model.god.godspower.ZeusPower {
                + ZeusPower()
                + build()
                + move()
            }




model.god.godspower.ApolloPower -up-|> model.god.godspower.Power
model.god.godspower.ArtemisPower .up.|> java.io.Serializable
model.god.godspower.ArtemisPower -up-|> model.god.godspower.Power
model.god.godspower.AthenaPower -up-|> model.god.godspower.Power
model.god.godspower.AtlasPower -up-|> model.god.godspower.Power
model.god.godspower.ChronusPower .up.|> java.io.Serializable
model.god.godspower.ChronusPower -up-|> model.god.godspower.Power
model.god.godspower.DemeterPower -up-|> model.god.godspower.Power
model.god.godspower.HephaestusPower -up-|> model.god.godspower.Power
model.god.godspower.HeraPower -up-|> model.god.godspower.Power
model.god.godspower.HestiaPower -up-|> model.god.godspower.Power
model.god.godspower.MinotaurPower -up-|> model.god.godspower.Power
model.god.godspower.PanPower -up-|> model.god.godspower.Power
model.god.godspower.Power .up.|> model.god.godspower.GodsChecker
model.god.godspower.Power .up.|> java.io.Serializable
model.god.godspower.Power o- - model.god.PowerType : powerType
model.god.godspower.PrometheusPower .up.|> java.io.Serializable
model.god.godspower.PrometheusPower -up-|> model.god.godspower.Power
model.god.godspower.TritonPower -up-|> model.god.godspower.Power
model.god.godspower.ZeusPower .up.|> java.io.Serializable
model.god.godspower.ZeusPower -up-|> model.god.godspower.Power



right footer


PlantUML diagram generated by SketchIt! (https://bitbucket.org/pmesmeur/sketch.it)
For more information about this tool, please contact philippe.mesmeur@gmail.com
endfooter

@enduml

PlantUML version 1.2020.09(Sun May 10 12:51:06 CEST 2020)
(GPL source distribution)
Java Runtime: OpenJDK Runtime Environment
JVM: OpenJDK 64-Bit Server VM
Java Version: 11.0.6+8-b765.25
Operating System: Windows 10
Default Encoding: Cp1252
Language: it
Country: IT
--></g></svg>